<svg xmlns="http://www.w3.org/2000/svg" id="_Calque_" data-name="&lt;Calque&gt;" viewBox="0 0 455.29 72.98"><defs><style>.cls-1{fill:#002f53}.cls-3{fill:#3f678b}.cls-4{fill:#839ab6}.cls-41{fill:#f28a2b}.cls-47{fill:#f28d31}.cls-81{fill:#f59e4e}.cls-86{fill:#f5a153}.cls-91{fill:#f6a458}.cls-95{fill:#f6a65c}.cls-100{fill:#f7a961}.cls-105{fill:#f7ac66}.cls-122{fill:#f8b475}.cls-133{fill:#f9ba7f}.cls-137{fill:#f9bc83}.cls-141{fill:#f9be87}.cls-155{fill:#fac593}.cls-159{fill:#fbc797}.cls-163{fill:#fbc99b}.cls-177{fill:#fcd0a7}.cls-181{fill:#fcd2ab}.cls-185{fill:#fcd4af}.cls-188{fill:#fcd6b2}.cls-197{fill:#fddaba}.cls-200{fill:#fddcbd}.cls-204{fill:#fddec1}.cls-208{fill:#fde0c5}.cls-212{fill:#fde2c9}.cls-220{fill:#fee6d0}.cls-224{fill:#fee8d4}.cls-231{fill:#feebda}.cls-234{fill:#feeddd}.cls-238{fill:#feefe1}.cls-259{fill:#fff8f2}.cls-263{fill:#fffaf6}.cls-266{fill:#fffcf9}</style></defs><path d="M45.56 64.81c-5.44 5.75-12.2 8.16-19.76 8.16a26 26 0 0 1-18.86-7.66c-7-7.05-6.95-15-6.95-28.83s-.1-21.77 6.95-28.82A25.68 25.68 0 0 1 25.79 0C41.01 0 49.88 10 51.9 22.27H40.94c-1.81-7.86-7.05-12.5-15.12-12.5a14.42 14.42 0 0 0-10.58 4.44c-3.53 3.83-4.34 7.86-4.34 22.27s.81 18.55 4.34 22.38a14.35 14.35 0 0 0 10.58 4.34 15.26 15.26 0 0 0 11.7-5c2.62-3 3.62-6.66 3.62-11.29v-4H25.8v-9.28h26.21v11c0 9.19-1.71 15.14-6.45 20.18M90.11 72.37v-5.14a18.28 18.28 0 0 1-13.61 5.74 17.75 17.75 0 0 1-12.6-4.63c-3.93-3.83-5.14-8.67-5.14-14.42V21.26h10.28v31.15c0 8 4.54 11.39 10.29 11.39s10.61-3.53 10.61-11.39V21.26h10.28v51.11ZM116.52 49.79c0 8.77 4.64 14.31 13 14.31 5.75 0 8.77-1.61 12.4-5.24l6.55 6.15c-5.24 5.24-10.18 8-19.15 8-12.8 0-23-6.75-23-26.2 0-16.53 8.57-26.11 21.67-26.11 13.71 0 21.67 10.08 21.67 24.59v4.54Zm21.57-14.11a10.53 10.53 0 0 0-10.08-6.45 10.67 10.67 0 0 0-10.18 6.45 16.1 16.1 0 0 0-1.31 6.95h23a16.1 16.1 0 0 0-1.43-6.95M183.85 33.26c-2.31-2.32-4.13-3.43-7.66-3.43-5.54 0-10.18 4.44-10.18 11.49v31h-10.28V21.26h10.08v5.55c2.62-3.63 7.86-6.15 13.61-6.15 4.94 0 8.67 1.31 12.2 4.84ZM228.51 68.44c-2.82 2.82-7.36 4.53-12.5 4.53-5.55 0-9.68-1.41-13.51-6v5.44h-10.08V.6h10.28v25.8c3.73-4.43 8-5.74 13.41-5.74 5.14 0 9.58 1.71 12.4 4.54 5.14 5.14 5.74 13.8 5.74 21.57s-.6 16.53-5.74 21.67m-15.12-38.61c-9.28 0-10.69 7.86-10.69 16.94s1.41 17 10.69 17 10.58-8 10.58-17-1.31-16.94-10.58-16.94M248.16 49.79c0 8.77 4.64 14.31 13 14.31 5.74 0 8.77-1.61 12.39-5.24l6.56 6.15c-5.24 5.24-10.18 8-19.16 8-12.8 0-23-6.75-23-26.2 0-16.53 8.57-26.11 21.67-26.11 13.71 0 21.68 10.08 21.68 24.59v4.54Zm21.57-14.11a10.53 10.53 0 0 0-10.08-6.45 10.69 10.69 0 0 0-10.18 6.45 16.3 16.3 0 0 0-1.31 6.95h23a16.2 16.2 0 0 0-1.43-6.95M302.59 72.37c-9.57 0-14-6.85-14-14.21V30.03h-5.85v-7.86h5.84V6.65h10.28v15.52h9.88v7.86h-9.88v27.62c0 3.73 1.82 6 5.65 6h4.23v8.77Z" class="cls-1"/><path d="M347.21.02v72.61" style="fill:none;stroke:#002f53;stroke-width:1.6px"/><path d="M404.5 16.84a3.26 3.26 0 0 1-3.33 3.16h-13.33a3.26 3.26 0 0 1-3.34-3.16V3.16A3.26 3.26 0 0 1 387.84 0h13.33a3.26 3.26 0 0 1 3.33 3.16Z" class="cls-1"/><path d="M429.94 16.84A3.26 3.26 0 0 1 426.6 20h-13.37a3.25 3.25 0 0 1-3.33-3.16V3.16A3.25 3.25 0 0 1 413.23 0h13.33a3.26 3.26 0 0 1 3.34 3.16Z" class="cls-3"/><path d="M404.5 43.15a3.25 3.25 0 0 1-3.33 3.15h-13.33a3.25 3.25 0 0 1-3.34-3.15V29.46a3.26 3.26 0 0 1 3.34-3.16h13.33a3.26 3.26 0 0 1 3.33 3.16Z" class="cls-1"/><path d="M429.94 43.15a3.25 3.25 0 0 1-3.34 3.15h-13.37a3.24 3.24 0 0 1-3.33-3.15V29.46a3.25 3.25 0 0 1 3.33-3.16h13.33a3.26 3.26 0 0 1 3.34 3.16Z" class="cls-3"/><path d="M455.27 43.15a3.25 3.25 0 0 1-3.33 3.15H438.6a3.24 3.24 0 0 1-3.33-3.15V29.46a3.25 3.25 0 0 1 3.33-3.16h13.34a3.26 3.26 0 0 1 3.33 3.16Z" class="cls-4"/><path d="M404.5 69.44a3.26 3.26 0 0 1-3.33 3.17h-13.33a3.26 3.26 0 0 1-3.34-3.17V55.76a3.26 3.26 0 0 1 3.34-3.15h13.33a3.26 3.26 0 0 1 3.33 3.15Z" class="cls-1"/><path d="M429.94 69.44a3.26 3.26 0 0 1-3.34 3.17h-13.37a3.25 3.25 0 0 1-3.33-3.17V55.76a3.25 3.25 0 0 1 3.33-3.15h13.33a3.26 3.26 0 0 1 3.34 3.15Z" class="cls-3"/><path d="M455.29 69.44a3.25 3.25 0 0 1-3.33 3.17h-13.33a3.26 3.26 0 0 1-3.34-3.17V55.76a3.25 3.25 0 0 1 3.34-3.15h13.31a3.25 3.25 0 0 1 3.33 3.15Z" class="cls-4"/><path d="M672.35 566.77a3.25 3.25 0 0 1-3.34 3.16h-13.33a3.25 3.25 0 0 1-3.33-3.16V553.1a3.25 3.25 0 0 1 3.33-3.16H669a3.26 3.26 0 0 1 3.34 3.17Z" style="fill:#ef7900" transform="translate(-217.06 -549.9)"/><path d="M669 569.9h-13.3a3.25 3.25 0 0 1-3.32-3.15v-13.63a3.24 3.24 0 0 1 3.32-3.12H669a3.24 3.24 0 0 1 3.33 3.15v13.63a3.25 3.25 0 0 1-3.33 3.12" style="fill:#ef7901" transform="translate(-217.06 -549.9)"/><path d="M669 569.87h-13.27a3.24 3.24 0 0 1-3.31-3.14v-13.59a3.23 3.23 0 0 1 3.31-3.14H669a3.23 3.23 0 0 1 3.31 3.14v13.59a3.25 3.25 0 0 1-3.31 3.14" style="fill:#ef7a03" transform="translate(-217.06 -549.9)"/><path d="M669 569.84h-13.2a3.24 3.24 0 0 1-3.3-3.14v-13.54a3.22 3.22 0 0 1 3.3-3.13H669a3.22 3.22 0 0 1 3.3 3.14v13.54a3.23 3.23 0 0 1-3.3 3.13" style="fill:#ef7a05" transform="translate(-217.06 -549.9)"/><path d="M668.93 569.8h-13.16a3.21 3.21 0 0 1-3.29-3.12v-13.49a3.21 3.21 0 0 1 3.29-3.12h13.15a3.22 3.22 0 0 1 3.3 3.13v13.49a3.21 3.21 0 0 1-3.29 3.11" style="fill:#ef7b07" transform="translate(-217.06 -549.9)"/><path d="M668.91 569.77h-13.12a3.2 3.2 0 0 1-3.28-3.11v-13.45a3.2 3.2 0 0 1 3.28-3.11h13.11a3.2 3.2 0 0 1 3.29 3.11v13.45a3.2 3.2 0 0 1-3.28 3.11" style="fill:#ef7b09" transform="translate(-217.06 -549.9)"/><path d="M668.88 569.74h-13.07a3.19 3.19 0 0 1-3.26-3.1v-13.41a3.18 3.18 0 0 1 3.26-3.1h13.07a3.2 3.2 0 0 1 3.28 3.1v13.41a3.2 3.2 0 0 1-3.28 3.1" style="fill:#ef7c0b" transform="translate(-217.06 -549.9)"/><path d="M668.86 569.71h-13a3.19 3.19 0 0 1-3.25-3.1v-13.36a3.18 3.18 0 0 1 3.25-3.09h13a3.18 3.18 0 0 1 3.26 3.09v13.37a3.19 3.19 0 0 1-3.26 3.09" style="fill:#ef7c0c" transform="translate(-217.06 -549.9)"/><path d="M668.84 569.67h-13a3.17 3.17 0 0 1-3.25-3.08v-13.32a3.16 3.16 0 0 1 3.25-3.07h13a3.17 3.17 0 0 1 3.25 3.09v13.31a3.18 3.18 0 0 1-3.25 3.07" style="fill:#ef7c0e" transform="translate(-217.06 -549.9)"/><path d="M668.82 569.64h-12.94a3.15 3.15 0 0 1-3.23-3.07V553.3a3.15 3.15 0 0 1 3.23-3.07h12.94a3.16 3.16 0 0 1 3.24 3.07v13.27a3.16 3.16 0 0 1-3.24 3.07" style="fill:#ef7d0f" transform="translate(-217.06 -549.9)"/><path d="M668.8 569.61h-12.9a3.15 3.15 0 0 1-3.22-3.06v-13.23a3.14 3.14 0 0 1 3.22-3.06h12.9a3.15 3.15 0 0 1 3.23 3.06v13.23a3.16 3.16 0 0 1-3.23 3.06" style="fill:#ef7d11" transform="translate(-217.06 -549.9)"/><path d="M668.78 569.58h-12.86a3.15 3.15 0 0 1-3.21-3.06v-13.18a3.14 3.14 0 0 1 3.21-3.05h12.85a3.14 3.14 0 0 1 3.22 3.05v13.19a3.16 3.16 0 0 1-3.21 3.05" style="fill:#f07e12" transform="translate(-217.06 -549.9)"/><path d="M668.75 569.54H656a3.14 3.14 0 0 1-3.21-3v-13.18a3.13 3.13 0 0 1 3.21-3h12.8a3.14 3.14 0 0 1 3.21 3v13.14a3.13 3.13 0 0 1-3.26 3.04" style="fill:#f07e13" transform="translate(-217.06 -549.9)"/><path d="M668.73 569.51H656a3.11 3.11 0 0 1-3.19-3v-13.12a3.11 3.11 0 0 1 3.19-3h12.76a3.11 3.11 0 0 1 3.2 3v13.09a3.12 3.12 0 0 1-3.23 3.03" style="fill:#f07f14" transform="translate(-217.06 -549.9)"/><path d="M668.71 569.48H656a3.11 3.11 0 0 1-3.18-3v-13.07a3.11 3.11 0 0 1 3.18-3h12.72a3.11 3.11 0 0 1 3.19 3v13.05a3.11 3.11 0 0 1-3.2 3.02" style="fill:#f07f16" transform="translate(-217.06 -549.9)"/><path d="M668.69 569.45H656a3.11 3.11 0 0 1-3.17-3v-13a3.1 3.1 0 0 1 3.17-3h12.68a3.1 3.1 0 0 1 3.17 3v13a3.12 3.12 0 0 1-3.16 3" style="fill:#f08017" transform="translate(-217.06 -549.9)"/><path d="M668.67 569.41H656a3.09 3.09 0 0 1-3.16-3v-13a3.08 3.08 0 0 1 3.16-3h12.64a3.09 3.09 0 0 1 3.16 3v12.95a3.09 3.09 0 0 1-3.13 3.05" style="fill:#f08018" transform="translate(-217.06 -549.9)"/><path d="M668.65 569.38h-12.6a3.08 3.08 0 0 1-3.14-3v-12.9a3.07 3.07 0 0 1 3.14-3h12.59a3.08 3.08 0 0 1 3.16 3v12.91a3.08 3.08 0 0 1-3.15 2.99" style="fill:#f08119" transform="translate(-217.06 -549.9)"/><path d="M668.62 569.35h-12.54a3.06 3.06 0 0 1-3.14-3V553.5a3.06 3.06 0 0 1 3.14-3h12.54a3.07 3.07 0 0 1 3.15 3v12.87a3.07 3.07 0 0 1-3.15 2.98" style="fill:#f0811a" transform="translate(-217.06 -549.9)"/><path d="M668.6 569.32h-12.5a3.07 3.07 0 0 1-3.13-3v-12.8a3.06 3.06 0 0 1 3.13-3h12.5a3.05 3.05 0 0 1 3.13 3v12.83a3.07 3.07 0 0 1-3.13 2.97" style="fill:#f0821b" transform="translate(-217.06 -549.9)"/><path d="M668.58 569.28h-12.46a3 3 0 0 1-3.12-3v-12.74a3 3 0 0 1 3.12-2.95h12.46a3 3 0 0 1 3.12 3v12.77a3 3 0 0 1-3.12 2.92" style="fill:#f0821c" transform="translate(-217.06 -549.9)"/><path d="M668.56 569.25h-12.42a3 3 0 0 1-3.1-3v-12.68a3 3 0 0 1 3.1-3h12.42a3 3 0 0 1 3.11 3v12.73a3 3 0 0 1-3.11 2.95" style="fill:#f0831d" transform="translate(-217.06 -549.9)"/><path d="M668.54 569.22h-12.38a3 3 0 0 1-3.09-2.94v-12.69a3 3 0 0 1 3.09-2.94h12.38a3 3 0 0 1 3.1 2.94v12.69a3 3 0 0 1-3.1 2.94" style="fill:#f0831e" transform="translate(-217.06 -549.9)"/><path d="M668.52 569.19h-12.33a3 3 0 0 1-3.09-2.93v-12.65a3 3 0 0 1 3.09-2.93h12.32a3 3 0 0 1 3.1 2.93v12.65a3 3 0 0 1-3.09 2.93" style="fill:#f1831f" transform="translate(-217.06 -549.9)"/><path d="M668.49 569.15h-12.28a3 3 0 0 1-3.08-2.92v-12.6a3 3 0 0 1 3.08-2.91h12.28a3 3 0 0 1 3.08 2.92v12.6a3 3 0 0 1-3.08 2.91" style="fill:#f18420" transform="translate(-217.06 -549.9)"/><path d="M668.47 569.12h-12.24a3 3 0 0 1-3.06-2.91v-12.56a3 3 0 0 1 3.06-2.9h12.24a3 3 0 0 1 3.07 2.91v12.55a3 3 0 0 1-3.07 2.91" style="fill:#f18421" transform="translate(-217.06 -549.9)"/><path d="M668.45 569.09h-12.2a3 3 0 0 1-3-2.9v-12.51a3 3 0 0 1 3-2.9h12.2a3 3 0 0 1 3.06 2.9v12.51a3 3 0 0 1-3.06 2.9" style="fill:#f18522" transform="translate(-217.06 -549.9)"/><path d="M668.43 569.06h-12.16a3 3 0 0 1-3-2.89V553.7a3 3 0 0 1 3-2.89h12.16a3 3 0 0 1 3.05 2.89v12.47a3 3 0 0 1-3.05 2.89" style="fill:#f18523" transform="translate(-217.06 -549.9)"/><path d="M668.41 569H656.3a3 3 0 0 1-3-2.88v-12.4a3 3 0 0 1 3-2.87h12.11a3 3 0 0 1 3 2.88v12.43a3 3 0 0 1-3 2.84" style="fill:#f18624" transform="translate(-217.06 -549.9)"/><path d="M668.39 569h-12.07a3 3 0 0 1-3-2.87v-12.39a2.94 2.94 0 0 1 3-2.86h12.06a3 3 0 0 1 3 2.87v12.37a3 3 0 0 1-2.99 2.88" style="fill:#f18625" transform="translate(-217.06 -549.9)"/><path d="M668.36 569h-12a3 3 0 0 1-3-2.86v-12.37a2.94 2.94 0 0 1 3-2.86h12a2.94 2.94 0 0 1 3 2.86v12.33a3 3 0 0 1-3 2.9" style="fill:#f18725" transform="translate(-217.06 -549.9)"/><path d="M668.34 568.93h-12a3 3 0 0 1-3-2.85v-12.29a2.93 2.93 0 0 1 3-2.85h12a2.94 2.94 0 0 1 3 2.85v12.29a2.94 2.94 0 0 1-3 2.85" style="fill:#f18726" transform="translate(-217.06 -549.9)"/><path d="M668.32 568.89h-11.94a2.92 2.92 0 0 1-3-2.84v-12.24a2.91 2.91 0 0 1 3-2.83h11.94a2.92 2.92 0 0 1 3 2.84v12.25a2.94 2.94 0 0 1-3 2.82" style="fill:#f18827" transform="translate(-217.06 -549.9)"/><path d="M668.3 568.86h-11.89a2.91 2.91 0 0 1-3-2.83v-12.2a2.9 2.9 0 0 1 3-2.82h11.89a2.91 2.91 0 0 1 3 2.83V566a2.91 2.91 0 0 1-3 2.86" style="fill:#f18828" transform="translate(-217.06 -549.9)"/><path d="M668.28 568.83h-11.85a2.9 2.9 0 0 1-3-2.82v-12.15a2.9 2.9 0 0 1 3-2.82h11.85a2.9 2.9 0 0 1 3 2.82V566a2.9 2.9 0 0 1-3 2.83" style="fill:#f18929" transform="translate(-217.06 -549.9)"/><path d="M668.26 568.8h-11.81a2.91 2.91 0 0 1-3-2.81v-12.11a2.89 2.89 0 0 1 3-2.81h11.8a2.89 2.89 0 0 1 3 2.81V566a2.9 2.9 0 0 1-2.99 2.8" style="fill:#f1892a" transform="translate(-217.06 -549.9)"/><path d="M451.17 18.86h-11.76a2.87 2.87 0 0 1-2.94-2.79V4a2.87 2.87 0 0 1 2.94-2.79h11.76a2.88 2.88 0 0 1 2.95 2.8V16.1a2.9 2.9 0 0 1-2.95 2.76" class="cls-41"/><path d="M451.15 18.83h-11.72a2.87 2.87 0 0 1-2.93-2.79v-12a2.86 2.86 0 0 1 2.93-2.78h11.72a2.86 2.86 0 0 1 2.94 2.78v12a2.87 2.87 0 0 1-2.94 2.79" class="cls-41"/><path d="M668.19 568.7h-11.67a2.86 2.86 0 0 1-2.93-2.78V554a2.85 2.85 0 0 1 2.93-2.78h11.67a2.85 2.85 0 0 1 2.93 2.78v12a2.86 2.86 0 0 1-2.93 2.7" style="fill:#f28a2c" transform="translate(-217.06 -549.9)"/><path d="M668.17 568.67h-11.63a2.86 2.86 0 0 1-2.92-2.77V554a2.85 2.85 0 0 1 2.92-2.77h11.63a2.85 2.85 0 0 1 2.92 2.77v11.9a2.86 2.86 0 0 1-2.92 2.77" style="fill:#f28b2d" transform="translate(-217.06 -549.9)"/><path d="M668.15 568.63h-11.59a2.83 2.83 0 0 1-2.9-2.75V554a2.83 2.83 0 0 1 2.9-2.75h11.59a2.84 2.84 0 0 1 2.9 2.76v11.89a2.85 2.85 0 0 1-2.9 2.73" style="fill:#f28b2e" transform="translate(-217.06 -549.9)"/><path d="M668.13 568.6h-11.55a2.83 2.83 0 0 1-2.89-2.75V554a2.82 2.82 0 0 1 2.89-2.74h11.54A2.83 2.83 0 0 1 671 554v11.84a2.83 2.83 0 0 1-2.87 2.76" style="fill:#f28c2f" transform="translate(-217.06 -549.9)"/><path d="M668.1 568.57h-11.5a2.82 2.82 0 0 1-2.88-2.74V554a2.81 2.81 0 0 1 2.88-2.74h11.5A2.81 2.81 0 0 1 671 554v11.79a2.82 2.82 0 0 1-2.9 2.78" style="fill:#f28c30" transform="translate(-217.06 -549.9)"/><path d="M451.02 18.64h-11.46a2.82 2.82 0 0 1-2.87-2.73V4.16a2.8 2.8 0 0 1 2.87-2.73h11.46a2.81 2.81 0 0 1 2.88 2.73v11.75a2.81 2.81 0 0 1-2.88 2.73" class="cls-47"/><path d="M451 18.6h-11.41a2.79 2.79 0 0 1-2.86-2.71V4.18a2.79 2.79 0 0 1 2.86-2.71H451a2.8 2.8 0 0 1 2.87 2.72V15.9a2.8 2.8 0 0 1-2.87 2.7" class="cls-47"/><path d="M668 568.47h-11.33a2.78 2.78 0 0 1-2.85-2.71V554.1a2.78 2.78 0 0 1 2.85-2.7H668a2.78 2.78 0 0 1 2.85 2.7v11.67a2.78 2.78 0 0 1-2.85 2.7" style="fill:#f28e32" transform="translate(-217.06 -549.9)"/><path d="M668 568.44h-11.31a2.78 2.78 0 0 1-2.84-2.7v-11.62a2.78 2.78 0 0 1 2.84-2.69H668a2.77 2.77 0 0 1 2.84 2.7v11.61a2.78 2.78 0 0 1-2.84 2.7" style="fill:#f28e33" transform="translate(-217.06 -549.9)"/><path d="M668 568.41h-11.29a2.77 2.77 0 0 1-2.82-2.69v-11.57a2.75 2.75 0 0 1 2.82-2.69H668a2.76 2.76 0 0 1 2.83 2.69v11.57a2.77 2.77 0 0 1-2.83 2.69" style="fill:#f28f34" transform="translate(-217.06 -549.9)"/><path d="M668 568.37h-11.27a2.75 2.75 0 0 1-2.81-2.67v-11.53a2.74 2.74 0 0 1 2.81-2.67H668a2.76 2.76 0 0 1 2.83 2.68v11.52a2.76 2.76 0 0 1-2.83 2.67" style="fill:#f38f35" transform="translate(-217.06 -549.9)"/><path d="M668 568.34h-11.24a2.75 2.75 0 0 1-2.81-2.67v-11.48a2.74 2.74 0 0 1 2.81-2.66H668a2.74 2.74 0 0 1 2.81 2.66v11.49a2.75 2.75 0 0 1-2.81 2.66" style="fill:#f39035" transform="translate(-217.06 -549.9)"/><path d="M667.93 568.31h-11.15a2.74 2.74 0 0 1-2.8-2.66v-11.44a2.73 2.73 0 0 1 2.8-2.65h11.15a2.73 2.73 0 0 1 2.8 2.66v11.43a2.74 2.74 0 0 1-2.8 2.66" style="fill:#f39036" transform="translate(-217.06 -549.9)"/><path d="M667.91 568.28H656.8a2.73 2.73 0 0 1-2.78-2.65v-11.39a2.72 2.72 0 0 1 2.78-2.65h11.11a2.72 2.72 0 0 1 2.79 2.65v11.39a2.73 2.73 0 0 1-2.79 2.65" style="fill:#f39137" transform="translate(-217.06 -549.9)"/><path d="M667.89 568.24h-11.07a2.7 2.7 0 0 1-2.77-2.63v-11.35a2.7 2.7 0 0 1 2.77-2.63h11.07a2.71 2.71 0 0 1 2.78 2.64v11.35a2.71 2.71 0 0 1-2.78 2.62" style="fill:#f39138" transform="translate(-217.06 -549.9)"/><path d="M667.87 568.21h-11a2.7 2.7 0 0 1-2.76-2.62v-11.31a2.69 2.69 0 0 1 2.76-2.62h11a2.7 2.7 0 0 1 2.77 2.62v11.31a2.72 2.72 0 0 1-2.77 2.62" style="fill:#f39239" transform="translate(-217.06 -549.9)"/><path d="M667.84 568.18h-11a2.7 2.7 0 0 1-2.76-2.62V554.3a2.69 2.69 0 0 1 2.76-2.61h11a2.69 2.69 0 0 1 2.76 2.61v11.26a2.69 2.69 0 0 1-2.76 2.62" style="fill:#f3923a" transform="translate(-217.06 -549.9)"/><path d="M667.82 568.15h-10.93a2.69 2.69 0 0 1-2.74-2.61v-11.21a2.68 2.68 0 0 1 2.74-2.61h10.93a2.68 2.68 0 0 1 2.75 2.61v11.21a2.69 2.69 0 0 1-2.75 2.61" style="fill:#f3933a" transform="translate(-217.06 -549.9)"/><path d="M667.8 568.11h-10.89a2.67 2.67 0 0 1-2.73-2.59v-11.17a2.66 2.66 0 0 1 2.73-2.59h10.89a2.67 2.67 0 0 1 2.74 2.6v11.17a2.68 2.68 0 0 1-2.74 2.58" style="fill:#f3933b" transform="translate(-217.06 -549.9)"/><path d="M667.78 568.08h-10.85a2.66 2.66 0 0 1-2.72-2.58v-11.13a2.65 2.65 0 0 1 2.72-2.58h10.85a2.65 2.65 0 0 1 2.72 2.58v11.13a2.67 2.67 0 0 1-2.72 2.58" style="fill:#f3943c" transform="translate(-217.06 -549.9)"/><path d="M667.76 568.05H657a2.65 2.65 0 0 1-2.71-2.58v-11.08a2.65 2.65 0 0 1 2.71-2.57h10.81a2.65 2.65 0 0 1 2.71 2.57v11.08a2.65 2.65 0 0 1-2.76 2.58" style="fill:#f3943d" transform="translate(-217.06 -549.9)"/><path d="M667.74 568H657a2.65 2.65 0 0 1-2.7-2.57v-11a2.64 2.64 0 0 1 2.7-2.56h10.76a2.64 2.64 0 0 1 2.7 2.57v11a2.64 2.64 0 0 1-2.72 2.56" style="fill:#f4953e" transform="translate(-217.06 -549.9)"/><path d="M667.71 568H657a2.63 2.63 0 0 1-2.69-2.55v-11a2.63 2.63 0 0 1 2.69-2.55h10.71a2.64 2.64 0 0 1 2.7 2.56v11a2.63 2.63 0 0 1-2.7 2.54" style="fill:#f4953f" transform="translate(-217.06 -549.9)"/><path d="M667.69 568H657a2.62 2.62 0 0 1-2.68-2.54v-11a2.61 2.61 0 0 1 2.68-2.54h10.67a2.62 2.62 0 0 1 2.69 2.54v10.95a2.63 2.63 0 0 1-2.67 2.59" style="fill:#f4963f" transform="translate(-217.06 -549.9)"/><path d="M667.67 567.92H657a2.6 2.6 0 0 1-2.66-2.54v-10.9A2.6 2.6 0 0 1 657 552h10.63a2.6 2.6 0 0 1 2.67 2.53v10.91a2.6 2.6 0 0 1-2.63 2.48" style="fill:#f49640" transform="translate(-217.06 -549.9)"/><path d="M667.65 567.89h-10.59a2.61 2.61 0 0 1-2.65-2.53V554.5a2.59 2.59 0 0 1 2.65-2.52h10.59a2.6 2.6 0 0 1 2.66 2.53v10.85a2.6 2.6 0 0 1-2.66 2.53" style="fill:#f49741" transform="translate(-217.06 -549.9)"/><path d="M667.63 567.85h-10.55a2.58 2.58 0 0 1-2.64-2.51v-10.81a2.58 2.58 0 0 1 2.64-2.51h10.55a2.59 2.59 0 0 1 2.65 2.52v10.81a2.59 2.59 0 0 1-2.65 2.5" style="fill:#f49742" transform="translate(-217.06 -549.9)"/><path d="M667.61 567.82h-10.5a2.58 2.58 0 0 1-2.64-2.5v-10.77a2.58 2.58 0 0 1 2.64-2.5h10.49a2.58 2.58 0 0 1 2.65 2.5v10.77a2.59 2.59 0 0 1-2.64 2.5" style="fill:#f49843" transform="translate(-217.06 -549.9)"/><path d="M667.58 567.79h-10.45a2.57 2.57 0 0 1-2.62-2.5v-10.72a2.56 2.56 0 0 1 2.62-2.49h10.45a2.56 2.56 0 0 1 2.63 2.49v10.73a2.57 2.57 0 0 1-2.63 2.49" style="fill:#f49844" transform="translate(-217.06 -549.9)"/><path d="M667.56 567.76h-10.41a2.56 2.56 0 0 1-2.61-2.49v-10.68a2.55 2.55 0 0 1 2.61-2.48h10.41a2.55 2.55 0 0 1 2.62 2.49v10.67a2.56 2.56 0 0 1-2.62 2.49" style="fill:#f49944" transform="translate(-217.06 -549.9)"/><path d="M667.54 567.72h-10.37a2.54 2.54 0 0 1-2.6-2.47v-10.63a2.54 2.54 0 0 1 2.6-2.47h10.37a2.55 2.55 0 0 1 2.61 2.48v10.63a2.55 2.55 0 0 1-2.61 2.46" style="fill:#f49945" transform="translate(-217.06 -549.9)"/><path d="M667.52 567.69H657.2a2.54 2.54 0 0 1-2.6-2.46v-10.59a2.54 2.54 0 0 1 2.6-2.46h10.32a2.54 2.54 0 0 1 2.6 2.46v10.59a2.54 2.54 0 0 1-2.6 2.46" style="fill:#f49a46" transform="translate(-217.06 -549.9)"/><path d="M667.5 567.66h-10.28a2.52 2.52 0 0 1-2.58-2.45v-10.55a2.52 2.52 0 0 1 2.58-2.45h10.28a2.52 2.52 0 0 1 2.58 2.45v10.55a2.52 2.52 0 0 1-2.58 2.45" style="fill:#f49a47" transform="translate(-217.06 -549.9)"/><path d="M667.48 567.63h-10.24a2.53 2.53 0 0 1-2.57-2.45v-10.5a2.51 2.51 0 0 1 2.57-2.44h10.24a2.51 2.51 0 0 1 2.57 2.44v10.5a2.52 2.52 0 0 1-2.57 2.45" style="fill:#f49b48" transform="translate(-217.06 -549.9)"/><path d="M667.46 567.59h-10.2a2.5 2.5 0 0 1-2.56-2.43v-10.45a2.5 2.5 0 0 1 2.56-2.44h10.19a2.51 2.51 0 0 1 2.57 2.44v10.45a2.5 2.5 0 0 1-2.56 2.43" style="fill:#f59b49" transform="translate(-217.06 -549.9)"/><path d="M667.43 567.56h-10.15a2.5 2.5 0 0 1-2.55-2.42v-10.41a2.49 2.49 0 0 1 2.55-2.42h10.15a2.49 2.49 0 0 1 2.56 2.42v10.41a2.5 2.5 0 0 1-2.56 2.42" style="fill:#f59c49" transform="translate(-217.06 -549.9)"/><path d="M667.41 567.53H657.3a2.48 2.48 0 0 1-2.53-2.41v-10.37a2.48 2.48 0 0 1 2.53-2.41h10.11a2.49 2.49 0 0 1 2.55 2.41v10.37a2.49 2.49 0 0 1-2.55 2.41" style="fill:#f59c4a" transform="translate(-217.06 -549.9)"/><path d="M667.39 567.5h-10.06a2.48 2.48 0 0 1-2.53-2.41v-10.32a2.47 2.47 0 0 1 2.53-2.4h10.06a2.47 2.47 0 0 1 2.53 2.4v10.32a2.48 2.48 0 0 1-2.53 2.41" style="fill:#f59d4b" transform="translate(-217.06 -549.9)"/><path d="M667.37 567.46h-10a2.46 2.46 0 0 1-2.52-2.39V554.8a2.46 2.46 0 0 1 2.52-2.39h10a2.46 2.46 0 0 1 2.52 2.4v10.27a2.46 2.46 0 0 1-2.52 2.38" style="fill:#f59d4c" transform="translate(-217.06 -549.9)"/><path d="M667.35 567.43h-10a2.45 2.45 0 0 1-2.5-2.38v-10.23a2.44 2.44 0 0 1 2.5-2.38h10a2.45 2.45 0 0 1 2.51 2.38v10.23a2.45 2.45 0 0 1-2.51 2.38" style="fill:#f59d4d" transform="translate(-217.06 -549.9)"/><path d="M450.27 17.5h-9.94a2.43 2.43 0 0 1-2.49-2.4V4.94a2.43 2.43 0 0 1 2.49-2.37h9.93a2.45 2.45 0 0 1 2.51 2.37V15.1a2.44 2.44 0 0 1-2.5 2.4" class="cls-81"/><path d="M450.24 17.47h-9.89a2.44 2.44 0 0 1-2.48-2.37V4.96a2.42 2.42 0 0 1 2.48-2.36h9.89a2.43 2.43 0 0 1 2.49 2.36V15.1a2.43 2.43 0 0 1-2.49 2.37" class="cls-81"/><path d="M667.28 567.33h-9.84A2.42 2.42 0 0 1 655 565v-10.1a2.41 2.41 0 0 1 2.48-2.34h9.84a2.42 2.42 0 0 1 2.48 2.36V565a2.42 2.42 0 0 1-2.52 2.33" style="fill:#f59f4f" transform="translate(-217.06 -549.9)"/><path d="M667.26 567.3h-9.8A2.4 2.4 0 0 1 655 565v-10.09a2.4 2.4 0 0 1 2.46-2.34h9.8a2.41 2.41 0 0 1 2.47 2.34V565a2.41 2.41 0 0 1-2.47 2.3" style="fill:#f59f50" transform="translate(-217.06 -549.9)"/><path d="M667.24 567.27h-9.76a2.39 2.39 0 0 1-2.45-2.33v-10a2.39 2.39 0 0 1 2.45-2.33h9.76a2.4 2.4 0 0 1 2.46 2.33v10a2.41 2.41 0 0 1-2.46 2.33" style="fill:#f5a051" transform="translate(-217.06 -549.9)"/><path d="M667.22 567.24h-9.72a2.4 2.4 0 0 1-2.44-2.33V555a2.39 2.39 0 0 1 2.44-2.32h9.72a2.38 2.38 0 0 1 2.44 2.32v10a2.4 2.4 0 0 1-2.44 2.24" style="fill:#f5a052" transform="translate(-217.06 -549.9)"/><path d="M450.14 17.3h-9.68a2.38 2.38 0 0 1-2.43-2.31V5.1a2.37 2.37 0 0 1 2.43-2.3h9.67a2.38 2.38 0 0 1 2.44 2.32v9.91a2.38 2.38 0 0 1-2.43 2.27" class="cls-86"/><path d="M450.11 17.27h-9.62a2.37 2.37 0 0 1-2.42-2.3V5.1a2.36 2.36 0 0 1 2.42-2.3h9.62a2.37 2.37 0 0 1 2.43 2.3v9.87a2.38 2.38 0 0 1-2.43 2.3" class="cls-86"/><path d="M667.15 567.14h-9.58a2.36 2.36 0 0 1-2.41-2.29V555a2.35 2.35 0 0 1 2.41-2.29h9.58a2.36 2.36 0 0 1 2.42 2.29v9.83a2.36 2.36 0 0 1-2.42 2.31" style="fill:#f5a254" transform="translate(-217.06 -549.9)"/><path d="M667.13 567.11h-9.54a2.35 2.35 0 0 1-2.4-2.29V555a2.35 2.35 0 0 1 2.4-2.28h9.54a2.34 2.34 0 0 1 2.4 2.28v9.79a2.36 2.36 0 0 1-2.4 2.32" style="fill:#f5a255" transform="translate(-217.06 -549.9)"/><path d="M667.11 567.07h-9.5a2.33 2.33 0 0 1-2.39-2.27v-9.74a2.33 2.33 0 0 1 2.39-2.26h9.5a2.33 2.33 0 0 1 2.39 2.27v9.74a2.33 2.33 0 0 1-2.39 2.26" style="fill:#f6a356" transform="translate(-217.06 -549.9)"/><path d="M667.09 567h-9.46a2.32 2.32 0 0 1-2.37-2.26v-9.69a2.32 2.32 0 0 1 2.37-2.26h9.46a2.32 2.32 0 0 1 2.38 2.26v9.69a2.33 2.33 0 0 1-2.38 2.26" style="fill:#f6a357" transform="translate(-217.06 -549.9)"/><path d="M450.01 17.1h-9.41a2.32 2.32 0 0 1-2.37-2.25V5.2a2.31 2.31 0 0 1 2.37-2.25h9.4a2.32 2.32 0 0 1 2.38 2.25v9.65a2.33 2.33 0 0 1-2.37 2.25" class="cls-91"/><path d="M449.94 17.1h-9.36a2.32 2.32 0 0 1-2.36-2.24V5.25a2.3 2.3 0 0 1 2.36-2.24h9.36a2.3 2.3 0 0 1 2.36 2.24v9.61a2.32 2.32 0 0 1-2.36 2.24" class="cls-91"/><path d="M667 566.94h-9.3a2.29 2.29 0 0 1-2.35-2.23v-9.56a2.29 2.29 0 0 1 2.35-2.22h9.3a2.29 2.29 0 0 1 2.35 2.23v9.56a2.29 2.29 0 0 1-2.35 2.22" style="fill:#f6a459" transform="translate(-217.06 -549.9)"/><path d="M667 566.91h-9.28a2.28 2.28 0 0 1-2.33-2.22v-9.52a2.27 2.27 0 0 1 2.33-2.21H667a2.28 2.28 0 0 1 2.34 2.22v9.51a2.29 2.29 0 0 1-2.34 2.22" style="fill:#f6a55a" transform="translate(-217.06 -549.9)"/><path d="M667 566.88h-9.24a2.27 2.27 0 0 1-2.32-2.21v-9.47a2.27 2.27 0 0 1 2.32-2.21H667a2.28 2.28 0 0 1 2.33 2.21v9.47a2.28 2.28 0 0 1-2.33 2.21" style="fill:#f6a55b" transform="translate(-217.06 -549.9)"/><path d="M449.94 16.95h-9.2a2.28 2.28 0 0 1-2.31-2.2V5.32a2.26 2.26 0 0 1 2.31-2.2h9.2a2.27 2.27 0 0 1 2.32 2.2v9.43a2.27 2.27 0 0 1-2.32 2.2" class="cls-95"/><path d="M449.88 16.91h-9.15a2.25 2.25 0 0 1-2.3-2.19V5.34a2.24 2.24 0 0 1 2.3-2.18h9.14a2.25 2.25 0 0 1 2.31 2.19v9.38a2.25 2.25 0 0 1-2.3 2.18" class="cls-95"/><path d="M666.91 566.78h-9.1a2.24 2.24 0 0 1-2.29-2.18v-9.34a2.23 2.23 0 0 1 2.29-2.17h9.1a2.24 2.24 0 0 1 2.3 2.18v9.33a2.25 2.25 0 0 1-2.3 2.18" style="fill:#f6a75d" transform="translate(-217.06 -549.9)"/><path d="M666.89 566.75h-9.06a2.23 2.23 0 0 1-2.28-2.17v-9.29a2.23 2.23 0 0 1 2.28-2.17h9.06a2.23 2.23 0 0 1 2.29 2.17v9.29a2.24 2.24 0 0 1-2.29 2.17" style="fill:#f6a75e" transform="translate(-217.06 -549.9)"/><path d="M666.87 566.71h-9a2.22 2.22 0 0 1-2.27-2.15v-9.25a2.22 2.22 0 0 1 2.27-2.16h9a2.23 2.23 0 0 1 2.28 2.16v9.25a2.22 2.22 0 0 1-2.28 2.15" style="fill:#f6a85f" transform="translate(-217.06 -549.9)"/><path d="M666.85 566.68h-9a2.21 2.21 0 0 1-2.26-2.15v-9.2a2.2 2.2 0 0 1 2.26-2.14h9a2.21 2.21 0 0 1 2.26 2.15v9.21a2.21 2.21 0 0 1-2.26 2.13" style="fill:#f6a860" transform="translate(-217.06 -549.9)"/><path d="M449.77 16.75h-8.93a2.19 2.19 0 0 1-2.25-2.14V5.45a2.19 2.19 0 0 1 2.25-2.13h8.93a2.19 2.19 0 0 1 2.25 2.13v9.16a2.2 2.2 0 0 1-2.25 2.14" class="cls-100"/><path d="M449.75 16.72h-8.89a2.19 2.19 0 0 1-2.24-2.13V5.48a2.18 2.18 0 0 1 2.24-2.13h8.88a2.19 2.19 0 0 1 2.25 2.13v9.11a2.2 2.2 0 0 1-2.24 2.13" class="cls-100"/><path d="M666.78 566.59h-8.84a2.19 2.19 0 0 1-2.23-2.12v-9.07a2.18 2.18 0 0 1 2.23-2.12h8.84a2.19 2.19 0 0 1 2.22 2.12v9.07a2.19 2.19 0 0 1-2.22 2.12" style="fill:#f7aa62" transform="translate(-217.06 -549.9)"/><path d="M666.76 566.55H658a2.17 2.17 0 0 1-2.21-2.11v-9a2.16 2.16 0 0 1 2.21-2.1h8.8a2.17 2.17 0 0 1 2.22 2.11v9a2.18 2.18 0 0 1-2.26 2.1" style="fill:#f7aa63" transform="translate(-217.06 -549.9)"/><path d="M666.74 566.52H658a2.15 2.15 0 0 1-2.2-2.1v-9a2.15 2.15 0 0 1 2.2-2.09h8.76a2.15 2.15 0 0 1 2.21 2.09v9a2.16 2.16 0 0 1-2.23 2.1" style="fill:#f7ab64" transform="translate(-217.06 -549.9)"/><path d="M666.72 566.49H658a2.15 2.15 0 0 1-2.2-2.09v-8.94a2.14 2.14 0 0 1 2.2-2.08h8.71a2.15 2.15 0 0 1 2.2 2.09v8.93a2.15 2.15 0 0 1-2.19 2.09" style="fill:#f7ab65" transform="translate(-217.06 -549.9)"/><path d="M449.64 16.56h-8.7a2.15 2.15 0 0 1-2.19-2.08V5.59a2.14 2.14 0 0 1 2.19-2.08h8.67a2.14 2.14 0 0 1 2.19 2.08v8.89a2.14 2.14 0 0 1-2.16 2.08" class="cls-105"/><path d="M449.62 16.52h-8.63a2.12 2.12 0 0 1-2.17-2.06V5.61a2.11 2.11 0 0 1 2.17-2.06h8.62a2.13 2.13 0 0 1 2.18 2.07v8.85a2.14 2.14 0 0 1-2.17 2.05" class="cls-105"/><path d="M666.65 566.39h-8.58a2.12 2.12 0 0 1-2.16-2.06v-8.8a2.11 2.11 0 0 1 2.16-2h8.58a2.11 2.11 0 0 1 2.17 2v8.8a2.12 2.12 0 0 1-2.17 2.06" style="fill:#f7ad67" transform="translate(-217.06 -549.9)"/><path d="M666.63 566.36h-8.54a2.11 2.11 0 0 1-2.15-2.05v-8.76a2.11 2.11 0 0 1 2.15-2h8.54a2.1 2.1 0 0 1 2.16 2v8.75a2.11 2.11 0 0 1-2.16 2.06" style="fill:#f7ad68" transform="translate(-217.06 -549.9)"/><path d="M666.61 566.32h-8.49a2.09 2.09 0 0 1-2.15-2v-8.71a2.1 2.1 0 0 1 2.15-2h8.49a2.1 2.1 0 0 1 2.15 2v8.71a2.09 2.09 0 0 1-2.15 2" style="fill:#f7ad69" transform="translate(-217.06 -549.9)"/><path d="M666.59 566.29h-8.45a2.08 2.08 0 0 1-2.13-2v-8.69a2.07 2.07 0 0 1 2.13-2h8.45a2.08 2.08 0 0 1 2.13 2v8.67a2.09 2.09 0 0 1-2.13 2.02" style="fill:#f7ae6a" transform="translate(-217.06 -549.9)"/><path d="M666.57 566.26h-8.41a2.08 2.08 0 0 1-2.12-2v-8.62a2.07 2.07 0 0 1 2.12-2h8.41a2.07 2.07 0 0 1 2.12 2v8.62a2.08 2.08 0 0 1-2.12 2" style="fill:#f7ae6b" transform="translate(-217.06 -549.9)"/><path d="M666.55 566.23h-8.37a2.07 2.07 0 0 1-2.11-2v-8.58a2.06 2.06 0 0 1 2.11-2h8.36a2.07 2.07 0 0 1 2.12 2v8.57a2.07 2.07 0 0 1-2.11 2.01" style="fill:#f7af6b" transform="translate(-217.06 -549.9)"/><path d="M666.52 566.19h-8.32a2 2 0 0 1-2.09-2v-8.53a2.05 2.05 0 0 1 2.09-2h8.32a2.06 2.06 0 0 1 2.11 2v8.53a2 2 0 0 1-2.11 2" style="fill:#f7af6c" transform="translate(-217.06 -549.9)"/><path d="M666.5 566.16h-8.27a2 2 0 0 1-2.09-2v-8.49a2 2 0 0 1 2.09-2h8.27a2 2 0 0 1 2.1 2v8.49a2 2 0 0 1-2.1 2" style="fill:#f8b06d" transform="translate(-217.06 -549.9)"/><path d="M666.48 566.13h-8.23a2 2 0 0 1-2.08-2v-8.44a2 2 0 0 1 2.08-2h8.23a2 2 0 0 1 2.08 2v8.45a2 2 0 0 1-2.08 1.99" style="fill:#f8b06e" transform="translate(-217.06 -549.9)"/><path d="M666.46 566.1h-8.19a2 2 0 0 1-2.07-2v-8.4a2 2 0 0 1 2.07-2h8.19a2 2 0 0 1 2.07 2v8.4a2 2 0 0 1-2.07 2" style="fill:#f8b16f" transform="translate(-217.06 -549.9)"/><path d="M666.44 566.06h-8.15a2 2 0 0 1-2-1.95v-8.35a2 2 0 0 1 2-2h8.15a2 2 0 0 1 2.06 2v8.35a2 2 0 0 1-2.06 1.95" style="fill:#f8b170" transform="translate(-217.06 -549.9)"/><path d="M666.42 566h-8.11a2 2 0 0 1-2-1.94v-8.31a2 2 0 0 1 2-1.94h8.11a2 2 0 0 1 2.05 1.95v8.31a2 2 0 0 1-2.05 1.93" style="fill:#f8b270" transform="translate(-217.06 -549.9)"/><path d="M666.39 566h-8.06a2 2 0 0 1-2-1.94v-8.26a2 2 0 0 1 2-1.93h8.06a2 2 0 0 1 2 1.93v8.27a2 2 0 0 1-2 1.93" style="fill:#f8b271" transform="translate(-217.06 -549.9)"/><path d="M666.37 566h-8a2 2 0 0 1-2-1.93v-8.22a2 2 0 0 1 2-1.92h8a2 2 0 0 1 2 1.92V564a2 2 0 0 1-2 2" style="fill:#f8b372" transform="translate(-217.06 -549.9)"/><path d="M666.35 565.93h-8a2 2 0 0 1-2-1.91v-8.17a2 2 0 0 1 2-1.92h8a2 2 0 0 1 2 1.92V564a2 2 0 0 1-2 1.93" style="fill:#f8b373" transform="translate(-217.06 -549.9)"/><path d="M666.33 565.9h-7.93a2 2 0 0 1-2-1.9v-8.13a2 2 0 0 1 2-1.9h7.93a2 2 0 0 1 2 1.91V564a2 2 0 0 1-2 1.9" style="fill:#f8b474" transform="translate(-217.06 -549.9)"/><path d="M449.25 15.97h-7.89a1.94 1.94 0 0 1-2-1.89V5.99a1.94 1.94 0 0 1 2-1.89h7.89a1.94 1.94 0 0 1 2 1.89v8.11a1.94 1.94 0 0 1-2 1.87" class="cls-122"/><path d="M449.23 15.94h-7.85a1.94 1.94 0 0 1-2-1.89v-8a1.93 1.93 0 0 1 2-1.88h7.84a1.94 1.94 0 0 1 2 1.88v8a1.94 1.94 0 0 1-1.99 1.89" class="cls-122"/><path d="M666.26 565.8h-7.79a1.92 1.92 0 0 1-2-1.87v-8a1.92 1.92 0 0 1 2-1.88h7.79a1.93 1.93 0 0 1 2 1.88v8a1.93 1.93 0 0 1-2 1.87" style="fill:#f8b576" transform="translate(-217.06 -549.9)"/><path d="M666.24 565.77h-7.75a1.92 1.92 0 0 1-2-1.86V556a1.91 1.91 0 0 1 2-1.86h7.75a1.92 1.92 0 0 1 2 1.87v7.95a1.92 1.92 0 0 1-2 1.81" style="fill:#f8b577" transform="translate(-217.06 -549.9)"/><path d="M666.22 565.74h-7.71a1.91 1.91 0 0 1-2-1.85V556a1.91 1.91 0 0 1 2-1.85h7.71a1.9 1.9 0 0 1 1.95 1.85v7.91a1.92 1.92 0 0 1-1.95 1.83" style="fill:#f8b678" transform="translate(-217.06 -549.9)"/><path d="M666.2 565.71h-7.67a1.9 1.9 0 0 1-1.94-1.85V556a1.89 1.89 0 0 1 1.94-1.84h7.67a1.89 1.89 0 0 1 1.94 1.84v7.86a1.9 1.9 0 0 1-1.94 1.85" style="fill:#f8b679" transform="translate(-217.06 -549.9)"/><path d="M666.18 565.67h-7.63a1.88 1.88 0 0 1-1.92-1.83V556a1.88 1.88 0 0 1 1.92-1.83h7.63a1.89 1.89 0 0 1 1.93 1.84v7.81a1.88 1.88 0 0 1-1.93 1.85" style="fill:#f8b77a" transform="translate(-217.06 -549.9)"/><path d="M666.16 565.64h-7.58a1.88 1.88 0 0 1-1.92-1.82v-7.77a1.87 1.87 0 0 1 1.92-1.82h7.58a1.88 1.88 0 0 1 1.92 1.83v7.77a1.88 1.88 0 0 1-1.92 1.81" style="fill:#f9b77a" transform="translate(-217.06 -549.9)"/><path d="M666.13 565.61h-7.53a1.87 1.87 0 0 1-1.91-1.81v-7.73a1.86 1.86 0 0 1 1.91-1.81h7.53a1.86 1.86 0 0 1 1.91 1.81v7.73a1.88 1.88 0 0 1-1.91 1.81" style="fill:#f9b87b" transform="translate(-217.06 -549.9)"/><path d="M666.11 565.58h-7.49a1.86 1.86 0 0 1-1.9-1.81v-7.68a1.86 1.86 0 0 1 1.9-1.8h7.49a1.85 1.85 0 0 1 1.9 1.8v7.68a1.86 1.86 0 0 1-1.9 1.81" style="fill:#f9b87c" transform="translate(-217.06 -549.9)"/><path d="M666.09 565.54h-7.45a1.83 1.83 0 0 1-1.88-1.79v-7.64a1.83 1.83 0 0 1 1.88-1.79h7.45a1.84 1.84 0 0 1 1.89 1.79v7.64a1.84 1.84 0 0 1-1.89 1.79" style="fill:#f9b97d" transform="translate(-217.06 -549.9)"/><path d="M666.07 565.51h-7.4a1.83 1.83 0 0 1-1.88-1.78v-7.59a1.83 1.83 0 0 1 1.88-1.78h7.4a1.83 1.83 0 0 1 1.88 1.79v7.59a1.83 1.83 0 0 1-1.88 1.77" style="fill:#f9b97e" transform="translate(-217.06 -549.9)"/><path d="M448.99 15.58h-7.36a1.83 1.83 0 0 1-1.87-1.77V6.26a1.82 1.82 0 0 1 1.87-1.77h7.36a1.82 1.82 0 0 1 1.87 1.77v7.55a1.83 1.83 0 0 1-1.87 1.77" class="cls-133"/><path d="M448.94 15.55h-7.32a1.81 1.81 0 0 1-1.85-1.77v-7.5a1.81 1.81 0 0 1 1.85-1.76h7.32a1.81 1.81 0 0 1 1.85 1.76v7.51a1.82 1.82 0 0 1-1.85 1.76" class="cls-133"/><path d="M666 565.41h-7.27a1.8 1.8 0 0 1-1.84-1.75v-7.46a1.8 1.8 0 0 1 1.84-1.75H666a1.81 1.81 0 0 1 1.85 1.75v7.46a1.81 1.81 0 0 1-1.85 1.75" style="fill:#f9ba80" transform="translate(-217.06 -549.9)"/><path d="M666 565.38h-7.23a1.79 1.79 0 0 1-1.83-1.74v-7.41a1.78 1.78 0 0 1 1.83-1.74H666a1.79 1.79 0 0 1 1.84 1.75v7.41a1.79 1.79 0 0 1-1.84 1.73" style="fill:#f9bb81" transform="translate(-217.06 -549.9)"/><path d="M666 565.35h-7.19a1.78 1.78 0 0 1-1.82-1.73v-7.37a1.78 1.78 0 0 1 1.82-1.73H666a1.78 1.78 0 0 1 1.83 1.73v7.37a1.79 1.79 0 0 1-1.83 1.73" style="fill:#f9bb82" transform="translate(-217.06 -549.9)"/><path d="M448.88 15.42h-7.14a1.77 1.77 0 0 1-1.81-1.73V6.37a1.77 1.77 0 0 1 1.81-1.72h7.14a1.77 1.77 0 0 1 1.81 1.72v7.33a1.77 1.77 0 0 1-1.81 1.72" class="cls-137"/><path d="M448.86 15.38h-7.1a1.76 1.76 0 0 1-1.8-1.71V6.39a1.76 1.76 0 0 1 1.8-1.71h7.1a1.76 1.76 0 0 1 1.8 1.71v7.28a1.76 1.76 0 0 1-1.8 1.71" class="cls-137"/><path d="M665.9 565.25h-7.06a1.75 1.75 0 0 1-1.79-1.7v-7.24a1.74 1.74 0 0 1 1.79-1.69h7.06a1.75 1.75 0 0 1 1.79 1.71v7.23a1.75 1.75 0 0 1-1.79 1.69" style="fill:#f9bd84" transform="translate(-217.06 -549.9)"/><path d="M665.88 565.22h-7a1.74 1.74 0 0 1-1.78-1.69v-7.19a1.73 1.73 0 0 1 1.78-1.69h7a1.74 1.74 0 0 1 1.79 1.69v7.19a1.74 1.74 0 0 1-1.79 1.69" style="fill:#f9bd85" transform="translate(-217.06 -549.9)"/><path d="M665.85 565.19h-7a1.73 1.73 0 0 1-1.76-1.68v-7.15a1.72 1.72 0 0 1 1.76-1.68h7a1.72 1.72 0 0 1 1.77 1.68v7.15a1.73 1.73 0 0 1-1.77 1.68" style="fill:#f9be86" transform="translate(-217.06 -549.9)"/><path d="M448.77 15.25h-6.92a1.72 1.72 0 0 1-1.76-1.67v-7.1a1.72 1.72 0 0 1 1.76-1.67h6.92a1.72 1.72 0 0 1 1.76 1.67v7.1a1.72 1.72 0 0 1-1.76 1.67" class="cls-141"/><path d="M448.75 15.22h-6.88a1.71 1.71 0 0 1-1.75-1.66V6.5a1.71 1.71 0 0 1 1.75-1.65h6.88a1.71 1.71 0 0 1 1.75 1.67v7.05a1.71 1.71 0 0 1-1.75 1.65" class="cls-141"/><path d="M665.79 565.09H659a1.7 1.7 0 0 1-1.74-1.65v-7a1.7 1.7 0 0 1 1.74-1.65h6.84a1.69 1.69 0 0 1 1.74 1.65v7a1.7 1.7 0 0 1-1.79 1.65" style="fill:#fabf88" transform="translate(-217.06 -549.9)"/><path d="M665.77 565.06H659a1.69 1.69 0 0 1-1.72-1.64v-7a1.68 1.68 0 0 1 1.72-1.64h6.8a1.68 1.68 0 0 1 1.72 1.64v7a1.7 1.7 0 0 1-1.75 1.64" style="fill:#fabf89" transform="translate(-217.06 -549.9)"/><path d="M665.75 565H659a1.67 1.67 0 0 1-1.71-1.63v-6.92a1.67 1.67 0 0 1 1.71-1.63h6.75a1.68 1.68 0 0 1 1.72 1.63v6.92a1.67 1.67 0 0 1-1.72 1.63" style="fill:#fac08a" transform="translate(-217.06 -549.9)"/><path d="M665.72 565H659a1.67 1.67 0 0 1-1.71-1.62v-6.88a1.66 1.66 0 0 1 1.71-1.61h6.7a1.67 1.67 0 0 1 1.71 1.62v6.88a1.67 1.67 0 0 1-1.69 1.61" style="fill:#fac08b" transform="translate(-217.06 -549.9)"/><path d="M665.7 565H659a1.65 1.65 0 0 1-1.69-1.61v-6.83a1.65 1.65 0 0 1 1.69-1.61h6.66a1.66 1.66 0 0 1 1.7 1.61v6.83a1.66 1.66 0 0 1-1.66 1.61" style="fill:#fac18b" transform="translate(-217.06 -549.9)"/><path d="M665.68 564.93h-6.62a1.64 1.64 0 0 1-1.68-1.6v-6.79a1.64 1.64 0 0 1 1.68-1.6h6.62a1.64 1.64 0 0 1 1.69 1.6v6.79a1.65 1.65 0 0 1-1.69 1.6" style="fill:#fac18c" transform="translate(-217.06 -549.9)"/><path d="M665.66 564.89h-6.58a1.63 1.63 0 0 1-1.67-1.59v-6.74a1.63 1.63 0 0 1 1.67-1.59h6.58a1.63 1.63 0 0 1 1.67 1.59v6.75a1.63 1.63 0 0 1-1.67 1.58" style="fill:#fac28d" transform="translate(-217.06 -549.9)"/><path d="M665.64 564.86h-6.54a1.63 1.63 0 0 1-1.66-1.58v-6.7a1.63 1.63 0 0 1 1.66-1.58h6.54a1.63 1.63 0 0 1 1.66 1.58v6.7a1.62 1.62 0 0 1-1.66 1.58" style="fill:#fac28e" transform="translate(-217.06 -549.9)"/><path d="M665.62 564.83h-6.5a1.61 1.61 0 0 1-1.64-1.57v-6.66a1.61 1.61 0 0 1 1.64-1.56h6.49a1.61 1.61 0 0 1 1.66 1.57v6.65a1.62 1.62 0 0 1-1.65 1.57" style="fill:#fac28f" transform="translate(-217.06 -549.9)"/><path d="M665.59 564.8h-6.44a1.61 1.61 0 0 1-1.64-1.56v-6.61a1.6 1.6 0 0 1 1.64-1.56h6.44a1.61 1.61 0 0 1 1.65 1.56v6.61a1.62 1.62 0 0 1-1.65 1.56" style="fill:#fac38f" transform="translate(-217.06 -549.9)"/><path d="M665.57 564.76h-6.4a1.59 1.59 0 0 1-1.63-1.55v-6.56a1.6 1.6 0 0 1 1.63-1.55h6.4a1.59 1.59 0 0 1 1.63 1.55v6.57a1.59 1.59 0 0 1-1.63 1.54" style="fill:#fac390" transform="translate(-217.06 -549.9)"/><path d="M665.55 564.73h-6.36a1.58 1.58 0 0 1-1.62-1.54v-6.52a1.58 1.58 0 0 1 1.62-1.54h6.36a1.58 1.58 0 0 1 1.62 1.54v6.52a1.58 1.58 0 0 1-1.62 1.54" style="fill:#fac491" transform="translate(-217.06 -549.9)"/><path d="M665.53 564.7h-6.32a1.57 1.57 0 0 1-1.6-1.53v-6.48a1.56 1.56 0 0 1 1.6-1.52h6.32a1.57 1.57 0 0 1 1.61 1.53v6.47a1.57 1.57 0 0 1-1.61 1.53" style="fill:#fac492" transform="translate(-217.06 -549.9)"/><path d="M448.45 14.77h-6.28a1.56 1.56 0 0 1-1.59-1.52V6.82a1.56 1.56 0 0 1 1.59-1.52h6.28a1.56 1.56 0 0 1 1.6 1.52v6.43a1.57 1.57 0 0 1-1.6 1.52" class="cls-155"/><path d="M448.43 14.73h-6.23a1.55 1.55 0 0 1-1.59-1.51V6.84a1.55 1.55 0 0 1 1.59-1.51h6.22a1.55 1.55 0 0 1 1.59 1.51v6.39a1.56 1.56 0 0 1-1.58 1.5" class="cls-155"/><path d="M665.46 564.6h-6.18a1.54 1.54 0 0 1-1.58-1.5v-6.34a1.54 1.54 0 0 1 1.58-1.49h6.18a1.54 1.54 0 0 1 1.58 1.5v6.34a1.54 1.54 0 0 1-1.58 1.49" style="fill:#fac694" transform="translate(-217.06 -549.9)"/><path d="M665.44 564.57h-6.14a1.53 1.53 0 0 1-1.56-1.49v-6.3a1.52 1.52 0 0 1 1.56-1.48h6.14a1.53 1.53 0 0 1 1.57 1.49v6.29a1.53 1.53 0 0 1-1.57 1.49" style="fill:#fac695" transform="translate(-217.06 -549.9)"/><path d="M665.42 564.54h-6.1a1.52 1.52 0 0 1-1.55-1.48v-6.25a1.52 1.52 0 0 1 1.55-1.48h6.1a1.52 1.52 0 0 1 1.56 1.48v6.25a1.53 1.53 0 0 1-1.56 1.48" style="fill:#fbc696" transform="translate(-217.06 -549.9)"/><path d="M448.34 14.6h-6.06a1.51 1.51 0 0 1-1.54-1.5V6.89a1.51 1.51 0 0 1 1.54-1.47h6.06a1.51 1.51 0 0 1 1.54 1.47v6.21a1.52 1.52 0 0 1-1.54 1.5" class="cls-159"/><path d="M448.32 14.57h-6a1.51 1.51 0 0 1-1.54-1.46V6.95a1.5 1.5 0 0 1 1.54-1.45h6a1.5 1.5 0 0 1 1.53 1.46v6.14a1.5 1.5 0 0 1-1.53 1.47" class="cls-159"/><path d="M665.36 564.44h-6a1.49 1.49 0 0 1-1.52-1.45v-6.12a1.48 1.48 0 0 1 1.52-1.44h6a1.48 1.48 0 0 1 1.53 1.44V563a1.49 1.49 0 0 1-1.53 1.44" style="fill:#fbc898" transform="translate(-217.06 -549.9)"/><path d="M665.33 564.41h-5.92a1.48 1.48 0 0 1-1.51-1.41v-6.1a1.48 1.48 0 0 1 1.51-1.44h5.92a1.48 1.48 0 0 1 1.52 1.44v6.1a1.48 1.48 0 0 1-1.52 1.41" style="fill:#fbc899" transform="translate(-217.06 -549.9)"/><path d="M665.31 564.37h-5.88a1.46 1.46 0 0 1-1.5-1.42v-6a1.47 1.47 0 0 1 1.5-1.43h5.88a1.47 1.47 0 0 1 1.51 1.43v6a1.47 1.47 0 0 1-1.51 1.42" style="fill:#fbc99a" transform="translate(-217.06 -549.9)"/><path d="M448.23 14.44h-5.84a1.45 1.45 0 0 1-1.48-1.42v-6a1.45 1.45 0 0 1 1.48-1.42h5.84a1.46 1.46 0 0 1 1.49 1.42v6a1.46 1.46 0 0 1-1.49 1.42" class="cls-163"/><path d="M448.21 14.41h-5.79a1.44 1.44 0 0 1-1.48-1.41V7.1a1.44 1.44 0 0 1 1.48-1.4h5.79a1.44 1.44 0 0 1 1.48 1.4v5.94a1.44 1.44 0 0 1-1.48 1.37" class="cls-163"/><path d="M665.25 564.28h-5.75a1.44 1.44 0 0 1-1.47-1.4V557a1.43 1.43 0 0 1 1.47-1.39h5.75a1.43 1.43 0 0 1 1.47 1.4v5.89a1.44 1.44 0 0 1-1.47 1.38" style="fill:#fbca9c" transform="translate(-217.06 -549.9)"/><path d="M665.23 564.24h-5.71a1.43 1.43 0 0 1-1.46-1.38V557a1.43 1.43 0 0 1 1.46-1.39h5.7a1.43 1.43 0 0 1 1.47 1.39v5.85a1.43 1.43 0 0 1-1.46 1.39" style="fill:#fbca9d" transform="translate(-217.06 -549.9)"/><path d="M665.2 564.21h-5.66a1.41 1.41 0 0 1-1.44-1.38V557a1.42 1.42 0 0 1 1.44-1.38h5.66a1.42 1.42 0 0 1 1.45 1.38v5.81a1.42 1.42 0 0 1-1.45 1.4" style="fill:#fbcb9e" transform="translate(-217.06 -549.9)"/><path d="M665.18 564.18h-5.62a1.41 1.41 0 0 1-1.43-1.37v-5.76a1.4 1.4 0 0 1 1.43-1.36h5.62a1.4 1.4 0 0 1 1.44 1.36v5.76a1.41 1.41 0 0 1-1.44 1.37" style="fill:#fbcb9f" transform="translate(-217.06 -549.9)"/><path d="M665.16 564.15h-5.57a1.4 1.4 0 0 1-1.43-1.36v-5.72a1.4 1.4 0 0 1 1.43-1.35h5.57a1.4 1.4 0 0 1 1.43 1.36v5.71a1.4 1.4 0 0 1-1.43 1.36" style="fill:#fbcc9f" transform="translate(-217.06 -549.9)"/><path d="M665.14 564.11h-5.53a1.38 1.38 0 0 1-1.42-1.34v-5.67a1.39 1.39 0 0 1 1.42-1.35h5.53a1.39 1.39 0 0 1 1.42 1.35v5.67a1.38 1.38 0 0 1-1.42 1.34" style="fill:#fbcca0" transform="translate(-217.06 -549.9)"/><path d="M665.12 564.08h-5.49a1.36 1.36 0 0 1-1.4-1.33v-5.63a1.37 1.37 0 0 1 1.4-1.34h5.49a1.37 1.37 0 0 1 1.4 1.34v5.63a1.37 1.37 0 0 1-1.4 1.33" style="fill:#fbcca1" transform="translate(-217.06 -549.9)"/><path d="M665.1 564.05h-5.45a1.36 1.36 0 0 1-1.39-1.33v-5.58a1.35 1.35 0 0 1 1.39-1.32h5.44a1.36 1.36 0 0 1 1.4 1.32v5.58a1.36 1.36 0 0 1-1.39 1.33" style="fill:#fbcda2" transform="translate(-217.06 -549.9)"/><path d="M665.07 564h-5.4a1.36 1.36 0 0 1-1.38-1.32v-5.54a1.35 1.35 0 0 1 1.38-1.31h5.4a1.35 1.35 0 0 1 1.39 1.31v5.54a1.36 1.36 0 0 1-1.39 1.32" style="fill:#fbcda3" transform="translate(-217.06 -549.9)"/><path d="M665.05 564h-5.35a1.34 1.34 0 0 1-1.38-1.3v-5.49a1.35 1.35 0 0 1 1.38-1.31h5.35a1.35 1.35 0 0 1 1.38 1.31v5.49a1.34 1.34 0 0 1-1.38 1.3" style="fill:#fbcea3" transform="translate(-217.06 -549.9)"/><path d="M665 564h-5.31a1.33 1.33 0 0 1-1.36-1.29v-5.45a1.33 1.33 0 0 1 1.36-1.3H665a1.33 1.33 0 0 1 1.36 1.3v5.45A1.33 1.33 0 0 1 665 564" style="fill:#fbcea4" transform="translate(-217.06 -549.9)"/><path d="M665 563.92h-5.27a1.32 1.32 0 0 1-1.35-1.29v-5.4a1.32 1.32 0 0 1 1.35-1.28H665a1.31 1.31 0 0 1 1.35 1.28v5.4a1.32 1.32 0 0 1-1.35 1.29" style="fill:#fbcfa5" transform="translate(-217.06 -549.9)"/><path d="M665 563.89h-5.23a1.32 1.32 0 0 1-1.34-1.28v-5.36a1.31 1.31 0 0 1 1.34-1.27H665a1.31 1.31 0 0 1 1.34 1.27v5.36a1.32 1.32 0 0 1-1.34 1.28" style="fill:#fbcfa6" transform="translate(-217.06 -549.9)"/><path d="M447.94 13.95h-5.19a1.29 1.29 0 0 1-1.32-1.26V7.38a1.3 1.3 0 0 1 1.32-1.27h5.19a1.31 1.31 0 0 1 1.34 1.27v5.31a1.3 1.3 0 0 1-1.34 1.26" class="cls-177"/><path d="M447.88 13.92h-5.14a1.28 1.28 0 0 1-1.31-1.25V7.4a1.29 1.29 0 0 1 1.31-1.3h5.14a1.29 1.29 0 0 1 1.32 1.26v5.27a1.3 1.3 0 0 1-1.32 1.29" class="cls-177"/><path d="M664.92 563.79h-5.09a1.28 1.28 0 0 1-1.31-1.25v-5.22a1.28 1.28 0 0 1 1.31-1.24h5.09a1.27 1.27 0 0 1 1.31 1.24v5.22a1.28 1.28 0 0 1-1.31 1.25" style="fill:#fcd0a8" transform="translate(-217.06 -549.9)"/><path d="M664.9 563.76h-5a1.27 1.27 0 0 1-1.3-1.24v-5.18a1.26 1.26 0 0 1 1.3-1.23h5a1.26 1.26 0 0 1 1.3 1.23v5.18a1.27 1.27 0 0 1-1.3 1.24" style="fill:#fcd1a9" transform="translate(-217.06 -549.9)"/><path d="M664.88 563.72h-5a1.25 1.25 0 0 1-1.28-1.22v-5.13a1.25 1.25 0 0 1 1.28-1.23h5a1.26 1.26 0 0 1 1.29 1.23v5.13a1.26 1.26 0 0 1-1.29 1.22" style="fill:#fcd1aa" transform="translate(-217.06 -549.9)"/><path d="M447.8 13.79h-5a1.25 1.25 0 0 1-1.27-1.21V7.49a1.25 1.25 0 0 1 1.27-1.22h5a1.26 1.26 0 0 1 1.28 1.22v5.09a1.26 1.26 0 0 1-1.28 1.21" class="cls-181"/><path d="M447.78 13.76h-4.93a1.24 1.24 0 0 1-1.26-1.21v-5a1.24 1.24 0 0 1 1.26-1.2h4.92a1.23 1.23 0 0 1 1.27 1.2v5.05a1.23 1.23 0 0 1-1.26 1.16" class="cls-181"/><path d="M664.81 563.63h-4.87a1.23 1.23 0 0 1-1.26-1.2v-5a1.23 1.23 0 0 1 1.26-1.19h4.87a1.22 1.22 0 0 1 1.26 1.19v5a1.23 1.23 0 0 1-1.26 1.2" style="fill:#fcd2ac" transform="translate(-217.06 -549.9)"/><path d="M664.79 563.59H660a1.21 1.21 0 0 1-1.24-1.18v-5a1.21 1.21 0 0 1 1.24-1.18h4.83a1.22 1.22 0 0 1 1.25 1.19v4.95a1.22 1.22 0 0 1-1.29 1.22" style="fill:#fcd3ad" transform="translate(-217.06 -549.9)"/><path d="M664.77 563.56H660a1.2 1.2 0 0 1-1.23-1.17v-4.91a1.21 1.21 0 0 1 1.23-1.18h4.79a1.22 1.22 0 0 1 1.24 1.18v4.91a1.21 1.21 0 0 1-1.26 1.17" style="fill:#fcd3ae" transform="translate(-217.06 -549.9)"/><path d="M447.69 13.63h-4.75a1.2 1.2 0 0 1-1.22-1.16V7.6a1.19 1.19 0 0 1 1.22-1.16h4.75a1.19 1.19 0 0 1 1.25 1.16v4.87a1.19 1.19 0 0 1-1.25 1.16" class="cls-185"/><path d="M447.67 13.6h-4.73a1.19 1.19 0 0 1-1.21-1.16V7.62a1.19 1.19 0 0 1 1.21-1.15h4.71a1.18 1.18 0 0 1 1.21 1.15v4.82a1.19 1.19 0 0 1-1.19 1.16" class="cls-185"/><path d="M664.71 563.46h-4.66a1.17 1.17 0 0 1-1.2-1.14v-4.78a1.17 1.17 0 0 1 1.2-1.14h4.66a1.17 1.17 0 0 1 1.2 1.14v4.78a1.17 1.17 0 0 1-1.2 1.14" style="fill:#fcd5b0" transform="translate(-217.06 -549.9)"/><path d="M664.68 563.43h-4.61a1.16 1.16 0 0 1-1.19-1.13v-4.73a1.16 1.16 0 0 1 1.19-1.14h4.61a1.17 1.17 0 0 1 1.2 1.14v4.73a1.17 1.17 0 0 1-1.2 1.13" style="fill:#fcd5b1" transform="translate(-217.06 -549.9)"/><path d="M447.6 13.5h-4.57a1.16 1.16 0 0 1-1.18-1.12V7.69a1.15 1.15 0 0 1 1.18-1.12h4.57a1.15 1.15 0 0 1 1.18 1.12v4.69a1.15 1.15 0 0 1-1.18 1.12" class="cls-188"/><path d="M447.58 13.47h-4.53a1.15 1.15 0 0 1-1.17-1.12V7.71a1.15 1.15 0 0 1 1.17-1.11h4.53a1.14 1.14 0 0 1 1.17 1.11v4.64a1.14 1.14 0 0 1-1.17 1.12" class="cls-188"/><path d="M664.62 563.33h-4.49a1.13 1.13 0 0 1-1.15-1.1v-4.6a1.13 1.13 0 0 1 1.15-1.1h4.49a1.13 1.13 0 0 1 1.16 1.1v4.6a1.13 1.13 0 0 1-1.16 1.1" style="fill:#fcd6b3" transform="translate(-217.06 -549.9)"/><path d="M664.6 563.3h-4.44a1.12 1.12 0 0 1-1.15-1.09v-4.55a1.12 1.12 0 0 1 1.15-1.1h4.44a1.13 1.13 0 0 1 1.15 1.1v4.55a1.13 1.13 0 0 1-1.15 1.09" style="fill:#fcd7b4" transform="translate(-217.06 -549.9)"/><path d="M664.58 563.27h-4.4a1.12 1.12 0 0 1-1.14-1.08v-4.51a1.11 1.11 0 0 1 1.14-1.08h4.4a1.11 1.11 0 0 1 1.13 1.08v4.51a1.11 1.11 0 0 1-1.13 1.08" style="fill:#fcd7b5" transform="translate(-217.06 -549.9)"/><path d="M664.55 563.24h-4.35a1.1 1.1 0 0 1-1.12-1.08v-4.46a1.1 1.1 0 0 1 1.12-1.07h4.35a1.1 1.1 0 0 1 1.13 1.07v4.46a1.11 1.11 0 0 1-1.13 1.08" style="fill:#fcd8b6" transform="translate(-217.06 -549.9)"/><path d="M664.53 563.2h-4.31a1.08 1.08 0 0 1-1.11-1.06v-4.42a1.09 1.09 0 0 1 1.11-1.06h4.31a1.09 1.09 0 0 1 1.12 1.06v4.42a1.09 1.09 0 0 1-1.12 1.06" style="fill:#fdd8b6" transform="translate(-217.06 -549.9)"/><path d="M664.51 563.17h-4.27a1.07 1.07 0 0 1-1.1-1v-4.37a1.08 1.08 0 0 1 1.1-1.06h4.27a1.08 1.08 0 0 1 1.11 1.06v4.37a1.08 1.08 0 0 1-1.11 1" style="fill:#fdd9b7" transform="translate(-217.06 -549.9)"/><path d="M664.49 563.14h-4.22a1.07 1.07 0 0 1-1.1-1v-4.33a1.07 1.07 0 0 1 1.1-1h4.22a1.06 1.06 0 0 1 1.09 1v4.33a1.09 1.09 0 0 1-1.09 1" style="fill:#fdd9b8" transform="translate(-217.06 -549.9)"/><path d="M664.47 563.11h-4.18a1.06 1.06 0 0 1-1.08-1v-4.28a1.05 1.05 0 0 1 1.08-1h4.18a1.05 1.05 0 0 1 1.08 1v4.28a1.06 1.06 0 0 1-1.08 1" style="fill:#fdd9b9" transform="translate(-217.06 -549.9)"/><path d="M447.39 13.17h-4.14a1 1 0 0 1-1.07-1V7.93a1 1 0 0 1 1.07-1h4.14a1 1 0 0 1 1.07 1v4.24a1 1 0 0 1-1.07 1" class="cls-197"/><path d="M447.36 13.1h-4.09a1 1 0 0 1-1.06-1V7.9a1 1 0 0 1 1.06-1h4.09a1 1 0 0 1 1.07 1v4.2a1 1 0 0 1-1.07 1" class="cls-197"/><path d="M664.4 563h-4a1 1 0 0 1-1.05-1v-4.15a1 1 0 0 1 1.05-1h4a1 1 0 0 1 1.06 1V562a1 1 0 0 1-1.06 1" style="fill:#fddbbb" transform="translate(-217.06 -549.9)"/><path d="M664.38 563h-4a1 1 0 0 1-1-1v-4.1a1 1 0 0 1 1-1h4a1 1 0 0 1 1 1v4.1a1 1 0 0 1-1 1" style="fill:#fddbbc" transform="translate(-217.06 -549.9)"/><path d="M447.3 13.04h-4a1 1 0 0 1-1-1V8a1 1 0 0 1 1-1h4a1 1 0 0 1 1 1v4.1a1 1 0 0 1-1 .94" class="cls-200"/><path d="M447.28 13.01h-3.92a1 1 0 0 1-1-1v-4a1 1 0 0 1 1-1h3.92a1 1 0 0 1 1 1v4a1 1 0 0 1-1 1" class="cls-200"/><path d="M664.32 562.88h-3.88a1 1 0 0 1-1-1v-4a1 1 0 0 1 1-1h3.88a1 1 0 0 1 1 1v4a1 1 0 0 1-1 1" style="fill:#fddcbe" transform="translate(-217.06 -549.9)"/><path d="M664.29 562.85h-3.83a1 1 0 0 1-1-1V558a1 1 0 0 1 1-1h3.83a1 1 0 0 1 1 1v3.93a1 1 0 0 1-1 .92" style="fill:#fdddbf" transform="translate(-217.06 -549.9)"/><path d="M664.27 562.81h-3.79a1 1 0 0 1-1-.94V558a1 1 0 0 1 1-.94h3.79a1 1 0 0 1 1 .94v3.88a1 1 0 0 1-1 .93" style="fill:#fdddc0" transform="translate(-217.06 -549.9)"/><path d="M447.19 12.88h-3.74a1 1 0 0 1-1-.93V8.1a1 1 0 0 1 1-.93h3.74a1 1 0 0 1 1 .93v3.84a1 1 0 0 1-1 .94" class="cls-204"/><path d="M447.17 12.85h-3.7a1 1 0 0 1-1-.92V8.1a1 1 0 0 1 1-.92h3.7a1 1 0 0 1 1 .92v3.79a1 1 0 0 1-1 .96" class="cls-204"/><path d="M664.21 562.72h-3.66a.94.94 0 0 1-.95-.91v-3.75a.94.94 0 0 1 .95-.91h3.66a.93.93 0 0 1 .95.91v3.75a.94.94 0 0 1-.95.91" style="fill:#fddfc2" transform="translate(-217.06 -549.9)"/><path d="M664.19 562.68h-3.62a.92.92 0 0 1-.94-.9v-3.7a.92.92 0 0 1 .94-.9h3.62a.92.92 0 0 1 .94.9v3.7a.92.92 0 0 1-.94.9" style="fill:#fddfc3" transform="translate(-217.06 -549.9)"/><path d="M664.17 562.65h-3.58a.91.91 0 0 1-.93-.89v-3.66a.91.91 0 0 1 .93-.89h3.57a.92.92 0 0 1 .94.89v3.66a.91.91 0 0 1-.93.89" style="fill:#fddfc4" transform="translate(-217.06 -549.9)"/><path d="M447.08 12.72h-3.52a.9.9 0 0 1-.92-.88V8.22a.9.9 0 0 1 .92-.87h3.52a.91.91 0 0 1 .93.88v3.61a.91.91 0 0 1-.93.88" class="cls-208"/><path d="M447.06 12.69h-3.48a.9.9 0 0 1-.91-.87V8.25a.89.89 0 0 1 .91-.87h3.48a.9.9 0 0 1 .92.87v3.57a.9.9 0 0 1-.92.87" class="cls-208"/><path d="M664.1 562.55h-3.44a.88.88 0 0 1-.9-.86v-3.52a.89.89 0 0 1 .9-.86h3.44a.88.88 0 0 1 .9.86v3.52a.88.88 0 0 1-.9.86" style="fill:#fde1c6" transform="translate(-217.06 -549.9)"/><path d="M664.08 562.52h-3.4a.87.87 0 0 1-.89-.85v-3.48a.87.87 0 0 1 .89-.85h3.4a.87.87 0 0 1 .89.85v3.48a.87.87 0 0 1-.89.85" style="fill:#fde1c7" transform="translate(-217.06 -549.9)"/><path d="M664.06 562.49h-3.36a.86.86 0 0 1-.87-.84v-3.44a.85.85 0 0 1 .87-.83h3.36a.86.86 0 0 1 .88.83v3.44a.87.87 0 0 1-.88.84" style="fill:#fde2c8" transform="translate(-217.06 -549.9)"/><path d="M446.94 12.56h-3.31a.86.86 0 0 1-.87-.83V8.34a.85.85 0 0 1 .87-.83h3.31a.85.85 0 0 1 .88.83v3.39a.86.86 0 0 1-.88.83" class="cls-212"/><path d="M446.94 12.52h-3.26a.85.85 0 0 1-.86-.82V8.36a.85.85 0 0 1 .86-.82h3.26a.84.84 0 0 1 .86.82v3.34a.84.84 0 0 1-.86.82" class="cls-212"/><path d="M664 562.39h-3.22a.83.83 0 0 1-.85-.81v-3.3a.84.84 0 0 1 .85-.81H664a.84.84 0 0 1 .85.81v3.3a.83.83 0 0 1-.85.81" style="fill:#fde3ca" transform="translate(-217.06 -549.9)"/><path d="M664 562.36h-3.18a.82.82 0 0 1-.83-.8v-3.26a.81.81 0 0 1 .83-.79H664a.82.82 0 0 1 .84.79v3.26a.82.82 0 0 1-.84.8" style="fill:#fde3cb" transform="translate(-217.06 -549.9)"/><path d="M664 562.33h-3.14a.81.81 0 0 1-.82-.79v-3.21a.8.8 0 0 1 .82-.79H664a.81.81 0 0 1 .83.79v3.21a.81.81 0 0 1-.83.79" style="fill:#fde4cc" transform="translate(-217.06 -549.9)"/><path d="M663.93 562.29h-3.09a.8.8 0 0 1-.82-.77v-3.17a.8.8 0 0 1 .82-.78h3.09a.79.79 0 0 1 .81.78v3.17a.79.79 0 0 1-.81.77" style="fill:#fde4cd" transform="translate(-217.06 -549.9)"/><path d="M663.91 562.26h-3a.79.79 0 0 1-.81-.77v-3.12a.8.8 0 0 1 .81-.77h3a.79.79 0 0 1 .81.77v3.12a.79.79 0 0 1-.81.77" style="fill:#fee4cd" transform="translate(-217.06 -549.9)"/><path d="M663.88 562.23h-3a.77.77 0 0 1-.79-.76v-3.08a.77.77 0 0 1 .79-.75h3a.78.78 0 0 1 .8.75v3.08a.78.78 0 0 1-.8.76" style="fill:#fee5ce" transform="translate(-217.06 -549.9)"/><path d="M663.86 562.2h-3a.78.78 0 0 1-.78-.75v-3a.76.76 0 0 1 .78-.75h3a.77.77 0 0 1 .79.75v3a.78.78 0 0 1-.79.75" style="fill:#fee5cf" transform="translate(-217.06 -549.9)"/><path d="M446.78 12.26h-2.92a.76.76 0 0 1-.77-.73v-3a.76.76 0 0 1 .77-.74h2.92a.75.75 0 0 1 .77.74v3a.75.75 0 0 1-.77.73" class="cls-220"/><path d="M446.76 12.23h-2.82a.76.76 0 0 1-.77-.73V8.56a.76.76 0 0 1 .77-.73h2.87a.75.75 0 0 1 .76.73v2.94a.75.75 0 0 1-.81.73" class="cls-220"/><path d="M663.8 562.1H661a.73.73 0 0 1-.75-.72v-2.9a.73.73 0 0 1 .75-.71h2.83a.73.73 0 0 1 .75.71v2.9a.74.74 0 0 1-.78.72" style="fill:#fee7d1" transform="translate(-217.06 -549.9)"/><path d="M663.78 562.07H661a.73.73 0 0 1-.74-.71v-2.86a.72.72 0 0 1 .74-.7h2.78a.73.73 0 0 1 .75.71v2.85a.73.73 0 0 1-.75.71" style="fill:#fee7d2" transform="translate(-217.06 -549.9)"/><path d="M663.75 562H661a.71.71 0 0 1-.73-.69v-2.81a.72.72 0 0 1 .73-.7h2.74a.71.71 0 0 1 .73.7v2.81a.72.72 0 0 1-.72.69" style="fill:#fee7d3" transform="translate(-217.06 -549.9)"/><path d="M446.67 12.1h-2.73a.7.7 0 0 1-.71-.69V8.65a.7.7 0 0 1 .71-.69h2.7a.7.7 0 0 1 .72.69v2.76a.7.7 0 0 1-.69.69" class="cls-224"/><path d="M446.65 12.1h-2.66a.7.7 0 0 1-.7-.68V8.7a.69.69 0 0 1 .7-.67h2.66a.69.69 0 0 1 .71.67v2.72a.7.7 0 0 1-.71.68" class="cls-224"/><path d="M663.69 561.94h-2.61a.68.68 0 0 1-.7-.67v-2.68a.68.68 0 0 1 .7-.66h2.61a.69.69 0 0 1 .7.66v2.68a.69.69 0 0 1-.7.67" style="fill:#fee9d5" transform="translate(-217.06 -549.9)"/><path d="M663.67 561.9h-2.57a.67.67 0 0 1-.69-.65v-2.63a.67.67 0 0 1 .69-.66h2.57a.67.67 0 0 1 .69.66v2.63a.67.67 0 0 1-.69.65" style="fill:#fee9d6" transform="translate(-217.06 -549.9)"/><path d="M663.65 561.87h-2.53a.66.66 0 0 1-.67-.65v-2.58a.66.66 0 0 1 .67-.65h2.52a.66.66 0 0 1 .68.65v2.59a.66.66 0 0 1-.67.64" style="fill:#fee9d7" transform="translate(-217.06 -549.9)"/><path d="M663.62 561.84h-2.48a.66.66 0 0 1-.66-.64v-2.54a.65.65 0 0 1 .66-.63h2.48a.65.65 0 0 1 .67.63v2.54a.66.66 0 0 1-.67.64" style="fill:#feead7" transform="translate(-217.06 -549.9)"/><path d="M663.6 561.81h-2.43a.65.65 0 0 1-.66-.63v-2.5a.64.64 0 0 1 .66-.62h2.43a.65.65 0 0 1 .66.62v2.5a.65.65 0 0 1-.66.63" style="fill:#feead8" transform="translate(-217.06 -549.9)"/><path d="M663.58 561.77h-2.39a.63.63 0 0 1-.65-.61v-2.45a.64.64 0 0 1 .65-.62h2.39a.64.64 0 0 1 .65.62v2.45a.63.63 0 0 1-.65.61" style="fill:#feebd9" transform="translate(-217.06 -549.9)"/><path d="M446.5 11.84h-2.35a.62.62 0 0 1-.63-.6V8.83a.62.62 0 0 1 .63-.61h2.35a.62.62 0 0 1 .63.61v2.41a.62.62 0 0 1-.63.6" class="cls-231"/><path d="M446.48 11.81h-2.31a.61.61 0 0 1-.62-.6V8.85a.6.6 0 0 1 .62-.59h2.31a.6.6 0 0 1 .62.59v2.36a.61.61 0 0 1-.62.6" class="cls-231"/><path d="M663.52 561.68h-2.27a.62.62 0 0 1-.61-.59v-2.32a.6.6 0 0 1 .61-.58h2.26a.6.6 0 0 1 .62.58v2.32a.61.61 0 0 1-.61.59" style="fill:#feecdb" transform="translate(-217.06 -549.9)"/><path d="M663.49 561.64h-2.22a.59.59 0 0 1-.6-.57v-2.27a.59.59 0 0 1 .6-.58h2.22a.59.59 0 0 1 .61.58v2.27a.59.59 0 0 1-.61.57" style="fill:#feecdc" transform="translate(-217.06 -549.9)"/><path d="M446.41 11.71h-2.17a.57.57 0 0 1-.59-.56V8.92a.58.58 0 0 1 .59-.57h2.17a.58.58 0 0 1 .59.57v2.23a.57.57 0 0 1-.59.56" class="cls-234"/><path d="M446.39 11.68h-2.13a.57.57 0 0 1-.58-.56V8.94a.56.56 0 0 1 .58-.55h2.13a.56.56 0 0 1 .58.55v2.16a.57.57 0 0 1-.58.58" class="cls-234"/><path d="M663.43 561.55h-2.09a.57.57 0 0 1-.57-.55v-2.14a.56.56 0 0 1 .57-.54h2.09a.56.56 0 0 1 .57.54V561a.57.57 0 0 1-.57.55" style="fill:#feedde" transform="translate(-217.06 -549.9)"/><path d="M663.41 561.51h-2a.55.55 0 0 1-.56-.53v-2.1a.55.55 0 0 1 .56-.53h2a.55.55 0 0 1 .56.54V561a.55.55 0 0 1-.56.51" style="fill:#feeedf" transform="translate(-217.06 -549.9)"/><path d="M663.39 561.48h-2a.53.53 0 0 1-.54-.52v-2.05a.54.54 0 0 1 .54-.53h2a.54.54 0 0 1 .54.53V561a.53.53 0 0 1-.54.48" style="fill:#feeee0" transform="translate(-217.06 -549.9)"/><path d="M446.3 11.55h-2a.53.53 0 0 1-.54-.52v-2a.53.53 0 0 1 .54-.51h2a.53.53 0 0 1 .54.51v2a.53.53 0 0 1-.54.52" class="cls-238"/><path d="M446.28 11.51h-1.91a.51.51 0 0 1-.53-.5v-2a.51.51 0 0 1 .53-.5h1.91a.51.51 0 0 1 .53.5v2a.51.51 0 0 1-.53.5" class="cls-238"/><path d="M663.32 561.38h-1.87a.5.5 0 0 1-.51-.49V559a.5.5 0 0 1 .51-.49h1.87a.5.5 0 0 1 .52.49v1.92a.5.5 0 0 1-.52.46" style="fill:#fef0e2" transform="translate(-217.06 -549.9)"/><path d="M663.3 561.35h-1.83a.49.49 0 0 1-.5-.48V559a.49.49 0 0 1 .5-.49h1.83a.49.49 0 0 1 .5.49v1.87a.49.49 0 0 1-.5.48" style="fill:#fef0e3" transform="translate(-217.06 -549.9)"/><path d="M663.28 561.32h-1.79a.49.49 0 0 1-.49-.48V559a.48.48 0 0 1 .49-.47h1.79a.48.48 0 0 1 .49.47v1.82a.49.49 0 0 1-.49.5" style="fill:#fef0e4" transform="translate(-217.06 -549.9)"/><path d="M663.26 561.29h-1.74a.49.49 0 0 1-.49-.47V559a.48.48 0 0 1 .49-.46h1.74a.48.48 0 0 1 .48.46v1.78a.48.48 0 0 1-.48.51" style="fill:#fef1e4" transform="translate(-217.06 -549.9)"/><path d="M663.23 561.25h-1.69a.46.46 0 0 1-.47-.45v-1.74a.46.46 0 0 1 .47-.45h1.69a.46.46 0 0 1 .48.45v1.74a.46.46 0 0 1-.48.45" style="fill:#fef1e5" transform="translate(-217.06 -549.9)"/><path d="M663.21 561.22h-1.65a.45.45 0 0 1-.46-.44v-1.69a.46.46 0 0 1 .46-.45h1.65a.46.46 0 0 1 .47.45v1.69a.46.46 0 0 1-.47.44" style="fill:#fef2e6" transform="translate(-217.06 -549.9)"/><path d="M663.19 561.19h-1.61a.45.45 0 0 1-.45-.44v-1.64a.44.44 0 0 1 .45-.43h1.61a.44.44 0 0 1 .45.43v1.65a.44.44 0 0 1-.45.43" style="fill:#fef2e7" transform="translate(-217.06 -549.9)"/><path d="M663.17 561.15h-1.57a.43.43 0 0 1-.44-.42v-1.6a.43.43 0 0 1 .44-.42h1.57a.43.43 0 0 1 .44.42v1.6a.43.43 0 0 1-.44.42" style="fill:#fff2e8" transform="translate(-217.06 -549.9)"/><path d="M663.15 561.12h-1.53a.41.41 0 0 1-.42-.41v-1.56a.42.42 0 0 1 .42-.41h1.53a.42.42 0 0 1 .43.41v1.56a.42.42 0 0 1-.43.41" style="fill:#fff3e8" transform="translate(-217.06 -549.9)"/><path d="M663.13 561.09h-1.48a.41.41 0 0 1-.42-.4v-1.51a.41.41 0 0 1 .42-.41h1.48a.41.41 0 0 1 .42.41v1.51a.41.41 0 0 1-.42.4" style="fill:#fff3e9" transform="translate(-217.06 -549.9)"/><path d="M663.1 561.06h-1.43a.41.41 0 0 1-.41-.39v-1.47a.4.4 0 0 1 .41-.39h1.43a.4.4 0 0 1 .41.39v1.47a.4.4 0 0 1-.41.39" style="fill:#fff4ea" transform="translate(-217.06 -549.9)"/><path d="M663.08 561h-1.39a.39.39 0 0 1-.4-.38v-1.42a.39.39 0 0 1 .4-.38h1.39a.39.39 0 0 1 .4.38v1.42a.39.39 0 0 1-.4.38" style="fill:#fff4eb" transform="translate(-217.06 -549.9)"/><path d="M663.06 561h-1.35a.37.37 0 0 1-.38-.37v-1.38a.38.38 0 0 1 .38-.37h1.35a.38.38 0 0 1 .39.37v1.38a.37.37 0 0 1-.39.37" style="fill:#fff5eb" transform="translate(-217.06 -549.9)"/><path d="M663 561h-1.3a.37.37 0 0 1-.38-.36v-1.33a.38.38 0 0 1 .38-.37h1.3a.38.38 0 0 1 .38.37v1.33a.37.37 0 0 1-.38.36" style="fill:#fff5ec" transform="translate(-217.06 -549.9)"/><path d="M663 560.93h-1.26a.37.37 0 0 1-.37-.35v-1.29a.36.36 0 0 1 .37-.35H663a.35.35 0 0 1 .36.35v1.29a.36.36 0 0 1-.36.35" style="fill:#fff5ed" transform="translate(-217.06 -549.9)"/><path d="M663 560.9h-1.22a.36.36 0 0 1-.36-.35v-1.24a.35.35 0 0 1 .36-.34H663a.35.35 0 0 1 .35.34v1.24a.35.35 0 0 1-.35.35" style="fill:#fff6ee" transform="translate(-217.06 -549.9)"/><path d="M663 560.86h-1.2a.34.34 0 0 1-.34-.33v-1.2a.34.34 0 0 1 .34-.33h1.2a.34.34 0 0 1 .35.33v1.2a.34.34 0 0 1-.35.33" style="fill:#fff6ef" transform="translate(-217.06 -549.9)"/><path d="M663 560.83h-1.13a.32.32 0 0 1-.33-.32v-1.16a.33.33 0 0 1 .33-.32H663a.33.33 0 0 1 .34.32v1.16a.33.33 0 0 1-.34.32" style="fill:#fff7ef" transform="translate(-217.06 -549.9)"/><path d="M662.93 560.8h-1.09a.32.32 0 0 1-.32-.31v-1.11a.32.32 0 0 1 .32-.31h1.09a.31.31 0 0 1 .32.31v1.11a.31.31 0 0 1-.32.31" style="fill:#fff7f0" transform="translate(-217.06 -549.9)"/><path d="M662.91 560.76h-1a.3.3 0 0 1-.31-.3v-1.06a.3.3 0 0 1 .31-.3h1a.3.3 0 0 1 .31.3v1.06a.3.3 0 0 1-.31.3" style="fill:#fff7f1" transform="translate(-217.06 -549.9)"/><path d="M445.83 10.83h-1a.29.29 0 0 1-.3-.29v-1a.29.29 0 0 1 .3-.29h1a.3.3 0 0 1 .3.29v1a.3.3 0 0 1-.3.29" class="cls-259"/><path d="M445.81 10.8h-1a.29.29 0 0 1-.29-.28v-1a.29.29 0 0 1 .29-.28h1a.29.29 0 0 1 .29.28v1a.29.29 0 0 1-.29.28" class="cls-259"/><path d="M662.84 560.67h-.91a.28.28 0 0 1-.28-.27v-.93a.28.28 0 0 1 .28-.27h.91a.27.27 0 0 1 .28.27v.93a.27.27 0 0 1-.28.27" style="fill:#fff9f3" transform="translate(-217.06 -549.9)"/><path d="M662.82 560.63H662a.26.26 0 0 1-.26-.25v-.89a.26.26 0 0 1 .26-.26h.87a.26.26 0 0 1 .27.26v.89a.26.26 0 0 1-.32.25" style="fill:#fff9f4" transform="translate(-217.06 -549.9)"/><path d="M662.8 560.6h-.8a.25.25 0 0 1-.26-.25v-.84a.25.25 0 0 1 .26-.25h.82a.26.26 0 0 1 .26.25v.84a.26.26 0 0 1-.28.25" style="fill:#fffaf5" transform="translate(-217.06 -549.9)"/><path d="M445.72 10.67h-.78a.25.25 0 0 1-.25-.24v-.8a.25.25 0 0 1 .25-.24h.78a.25.25 0 0 1 .25.24v.8a.25.25 0 0 1-.25.24" class="cls-263"/><path d="M445.7 10.64h-.76a.24.24 0 0 1-.24-.23v-.75a.23.23 0 0 1 .24-.23h.74a.23.23 0 0 1 .24.23v.75a.24.24 0 0 1-.22.23" class="cls-263"/><path d="M662.74 560.5H662a.21.21 0 0 1-.22-.21v-.71a.22.22 0 0 1 .22-.22h.7a.22.22 0 0 1 .22.22v.71a.21.21 0 0 1-.18.21" style="fill:#fffbf7" transform="translate(-217.06 -549.9)"/><path d="M662.71 560.47h-.65a.21.21 0 0 1-.21-.21v-.66a.21.21 0 0 1 .21-.21h.65a.21.21 0 0 1 .22.21v.66a.21.21 0 0 1-.22.21" style="fill:#fffbf8" transform="translate(-217.06 -549.9)"/><path d="M445.63 10.54h-.6a.2.2 0 0 1-.21-.2v-.62a.2.2 0 0 1 .21-.2h.6a.2.2 0 0 1 .21.2v.62a.2.2 0 0 1-.21.2" class="cls-266"/><path d="M445.61 10.51h-.56a.19.19 0 0 1-.19-.19v-.57a.18.18 0 0 1 .19-.19h.56a.19.19 0 0 1 .2.19v.57a.2.2 0 0 1-.2.19" class="cls-266"/><path d="M662.65 560.37h-.52a.18.18 0 0 1-.18-.17v-.53a.18.18 0 0 1 .18-.18h.52a.18.18 0 0 1 .18.18v.53a.18.18 0 0 1-.18.17" style="fill:#fffcfa" transform="translate(-217.06 -549.9)"/><path d="M662.63 560.34h-.48a.17.17 0 0 1-.17-.17v-.48a.18.18 0 0 1 .17-.17h.48a.18.18 0 0 1 .17.17v.48a.17.17 0 0 1-.17.17" style="fill:#fffdfb" transform="translate(-217.06 -549.9)"/><rect width=".76" height=".76" x="444.95" y="9.66" rx=".16" style="fill:#fffdfc"/><path d="M662.58 560.28h-.38a.16.16 0 0 1-.16-.15v-.4a.15.15 0 0 1 .16-.14h.38a.15.15 0 0 1 .16.14v.4a.16.16 0 0 1-.16.15" style="fill:#fffefc" transform="translate(-217.06 -549.9)"/><rect width=".63" height=".63" x="445.02" y="9.72" rx=".14" style="fill:#fffefd"/><rect width=".56" height=".56" x="445.05" y="9.76" rx=".13" style="fill:#fffefe"/><rect width=".5" height=".5" x="445.09" y="9.79" rx=".12" style="fill:#fffffe"/><rect width=".43" height=".43" x="445.12" y="9.82" rx=".11" style="fill:#fff"/></svg>